<?xml version="1.0" encoding="UTF-8"?>
<!DOCTYPE svg PUBLIC "-//W3C//DTD SVG 1.1//EN" "http://www.w3.org/Graphics/SVG/1.1/DTD/svg11.dtd">
<svg xmlns="http://www.w3.org/2000/svg" version="1.1" width="225px" height="213px" style="shape-rendering:geometricPrecision; text-rendering:geometricPrecision; image-rendering:optimizeQuality; fill-rule:evenodd; clip-rule:evenodd" xmlns:xlink="http://www.w3.org/1999/xlink">
<g><path style="opacity:1" fill="#203440" d="M 142.5,23.5 C 142.611,24.1174 142.944,24.6174 143.5,25C 135.325,26.2549 127.992,29.4215 121.5,34.5C 115.58,30.8133 109.58,30.6466 103.5,34C 104.044,34.7172 104.711,35.2172 105.5,35.5C 98.3418,39.8843 96.6751,45.8843 100.5,53.5C 98.544,51.8249 97.2107,52.1582 96.5,54.5C 92.311,45.6817 94.311,38.1817 102.5,32C 108.917,29.8423 115.25,30.0089 121.5,32.5C 127.745,27.7513 134.745,24.7513 142.5,23.5 Z"/></g>
<g><path style="opacity:0.816" fill="#8b9ba3" d="M 100.5,53.5 C 96.6751,45.8843 98.3418,39.8843 105.5,35.5C 110.428,33.826 115.095,34.326 119.5,37C 117.04,37.0625 114.54,36.8958 112,36.5C 102.086,37.7436 98.7528,43.0769 102,52.5C 103.5,54 105,55.5 106.5,57C 103.669,57.3494 101.669,56.1827 100.5,53.5 Z"/></g>
<g><path style="opacity:1" fill="#10202c" d="M 142.5,23.5 C 148.093,23.1934 153.593,23.5268 159,24.5C 157.625,35.7512 153.125,45.5845 145.5,54C 138.302,59.1904 130.469,60.6904 122,58.5C 121.536,59.0944 121.369,59.7611 121.5,60.5C 117.136,61.7702 112.802,62.7702 108.5,63.5C 88.0797,66.5862 75.7464,78.2529 71.5,98.5C 70.8744,102.761 70.0411,107.094 69,111.5C 67.3351,100.49 69.5017,90.323 75.5,81C 74.9056,80.5357 74.2389,80.369 73.5,80.5C 62.7733,73.7025 63.1067,67.3692 74.5,61.5C 77.8087,63.7989 81.142,66.1322 84.5,68.5C 89.6088,64.6123 95.2755,61.7789 101.5,60C 99.2853,58.6208 97.6187,56.7875 96.5,54.5C 97.2107,52.1582 98.544,51.8249 100.5,53.5C 101.669,56.1827 103.669,57.3494 106.5,57C 105,55.5 103.5,54 102,52.5C 98.7528,43.0769 102.086,37.7436 112,36.5C 114.54,36.8958 117.04,37.0625 119.5,37C 115.095,34.326 110.428,33.826 105.5,35.5C 104.711,35.2172 104.044,34.7172 103.5,34C 109.58,30.6466 115.58,30.8133 121.5,34.5C 127.992,29.4215 135.325,26.2549 143.5,25C 142.944,24.6174 142.611,24.1174 142.5,23.5 Z"/></g>
<g><path style="opacity:1" fill="#d49038" d="M 110.5,54.5 C 111.833,54.5 113.167,54.5 114.5,54.5C 114.5,56.1667 114.5,57.8333 114.5,59.5C 113.167,59.5 111.833,59.5 110.5,59.5C 110.5,57.8333 110.5,56.1667 110.5,54.5 Z"/></g>
<g><path style="opacity:1" fill="#246123" d="M 123.5,51.5 C 123.833,51.5 124.167,51.5 124.5,51.5C 124.5,52.5 124.5,53.5 124.5,54.5C 128.649,55.0803 132.316,54.4136 135.5,52.5C 137.565,52.4828 139.565,52.1495 141.5,51.5C 136.095,56.0577 129.929,57.3911 123,55.5C 122.421,54.0715 122.588,52.7382 123.5,51.5 Z"/></g>
<g><path style="opacity:1" fill="#519f1b" d="M 128.5,48.5 C 132.846,48.3343 137.179,48.501 141.5,49C 139.568,50.4585 137.568,51.6252 135.5,52.5C 132.316,54.4136 128.649,55.0803 124.5,54.5C 124.5,53.5 124.5,52.5 124.5,51.5C 125.262,49.7376 126.596,48.7376 128.5,48.5 Z"/></g>
<g><path style="opacity:1" fill="#478a26" d="M 151.5,36.5 C 151.167,37.8333 150.833,39.1667 150.5,40.5C 147.878,44.4572 144.878,48.1239 141.5,51.5C 139.565,52.1495 137.565,52.4828 135.5,52.5C 137.568,51.6252 139.568,50.4585 141.5,49C 137.179,48.501 132.846,48.3343 128.5,48.5C 128.5,48.1667 128.5,47.8333 128.5,47.5C 132.684,46.8336 137.018,46.1669 141.5,45.5C 138.705,45.0615 136.372,44.0615 134.5,42.5C 136.216,40.9752 138.216,39.9752 140.5,39.5C 140.389,40.1174 140.056,40.6174 139.5,41C 140.759,41.9234 142.092,42.7568 143.5,43.5C 142.41,44.6086 142.41,45.6086 143.5,46.5C 146.175,43.1362 148.842,39.8029 151.5,36.5 Z"/></g>
<g><path style="opacity:1" fill="#14331b" d="M 130.5,38.5 C 130.654,42.0254 129.321,44.8587 126.5,47C 127.094,47.4643 127.761,47.631 128.5,47.5C 128.5,47.8333 128.5,48.1667 128.5,48.5C 126.596,48.7376 125.262,49.7376 124.5,51.5C 124.167,51.5 123.833,51.5 123.5,51.5C 122.652,50.375 121.652,50.375 120.5,51.5C 120.5,50.8333 120.5,50.1667 120.5,49.5C 125.281,47.0567 128.614,43.39 130.5,38.5 Z"/></g>
<g><path style="opacity:0.82" fill="#626c60" d="M 114.5,45.5 C 115.693,45.9704 116.36,46.9704 116.5,48.5C 116.167,49.5 115.833,50.5 115.5,51.5C 114.534,49.604 114.201,47.604 114.5,45.5 Z"/></g>
<g><path style="opacity:0.969" fill="#31424f" d="M 107.5,45.5 C 109.167,45.5 110.833,45.5 112.5,45.5C 112.5,47.5 112.5,49.5 112.5,51.5C 110.833,51.5 109.167,51.5 107.5,51.5C 107.5,49.5 107.5,47.5 107.5,45.5 Z"/></g>
<g><path style="opacity:1" fill="#091e20" d="M 130.5,38.5 C 131.404,39.209 131.737,40.209 131.5,41.5C 132.791,41.2627 133.791,41.596 134.5,42.5C 136.372,44.0615 138.705,45.0615 141.5,45.5C 137.018,46.1669 132.684,46.8336 128.5,47.5C 127.761,47.631 127.094,47.4643 126.5,47C 129.321,44.8587 130.654,42.0254 130.5,38.5 Z"/></g>
<g><path style="opacity:0.767" fill="#506273" d="M 110.5,39.5 C 113.247,39.1866 115.914,39.52 118.5,40.5C 118.291,41.086 117.957,41.586 117.5,42C 113.514,42.4988 109.514,42.6655 105.5,42.5C 105.813,45.2469 105.48,47.9135 104.5,50.5C 101.73,43.988 103.73,40.3213 110.5,39.5 Z"/></g>
<g><path style="opacity:1" fill="#72bc32" d="M 151.5,28.5 C 152.376,28.3691 153.043,28.7025 153.5,29.5C 152.423,31.7294 151.756,34.0628 151.5,36.5C 148.842,39.8029 146.175,43.1362 143.5,46.5C 142.41,45.6086 142.41,44.6086 143.5,43.5C 142.092,42.7568 140.759,41.9234 139.5,41C 140.056,40.6174 140.389,40.1174 140.5,39.5C 142.03,37.6535 144.03,36.6535 146.5,36.5C 146.5,35.5 146.5,34.5 146.5,33.5C 141.389,34.6389 136.889,36.9722 133,40.5C 132.667,39.1667 132.333,37.8333 132,36.5C 131.283,37.0442 130.783,37.7109 130.5,38.5C 128.614,43.39 125.281,47.0567 120.5,49.5C 121.778,41.4632 126.111,35.6299 133.5,32C 139.55,30.3742 145.55,29.2076 151.5,28.5 Z"/></g>
<g><path style="opacity:1" fill="#15311d" d="M 140.5,39.5 C 138.216,39.9752 136.216,40.9752 134.5,42.5C 133.791,41.596 132.791,41.2627 131.5,41.5C 131.737,40.209 131.404,39.209 130.5,38.5C 130.783,37.7109 131.283,37.0442 132,36.5C 132.333,37.8333 132.667,39.1667 133,40.5C 136.889,36.9722 141.389,34.6389 146.5,33.5C 146.5,34.5 146.5,35.5 146.5,36.5C 144.03,36.6535 142.03,37.6535 140.5,39.5 Z"/></g>
<g><path style="opacity:1" fill="#c2d1c6" d="M 147.5,27.5 C 149.099,27.2322 150.432,27.5655 151.5,28.5C 145.55,29.2076 139.55,30.3742 133.5,32C 126.111,35.6299 121.778,41.4632 120.5,49.5C 120.5,50.1667 120.5,50.8333 120.5,51.5C 119.307,51.0296 118.64,50.0296 118.5,48.5C 122.733,34.2969 132.4,27.2969 147.5,27.5 Z"/></g>
<g><path style="opacity:1" fill="#112c24" d="M 150.5,40.5 C 150.833,39.1667 151.167,37.8333 151.5,36.5C 151.756,34.0628 152.423,31.7294 153.5,29.5C 153.043,28.7025 152.376,28.3691 151.5,28.5C 150.432,27.5655 149.099,27.2322 147.5,27.5C 149.279,25.6565 151.612,24.9898 154.5,25.5C 154.817,28.5719 154.484,31.5719 153.5,34.5C 153.036,36.9749 152.036,38.9749 150.5,40.5 Z"/></g>
<g><path style="opacity:1" fill="#e9ceb4" d="M 110.5,65.5 C 114.678,64.4285 119.011,64.4285 123.5,65.5C 130.839,67.5021 136.839,71.5021 141.5,77.5C 137.891,75.02 134.224,72.52 130.5,70C 127.904,68.8644 125.237,68.031 122.5,67.5C 118.79,65.8643 114.79,65.1977 110.5,65.5 Z"/></g>
<g><path style="opacity:1" fill="#c6bfaa" d="M 77.5,69.5 C 74.9788,68.2496 72.6455,68.5829 70.5,70.5C 72.2902,64.7603 74.9569,64.2603 78.5,69C 78.2716,69.3988 77.9382,69.5654 77.5,69.5 Z"/></g>
<g><path style="opacity:1" fill="#ce7423" d="M 77.5,69.5 C 76.4518,71.6134 74.9518,73.2801 73,74.5C 70.3999,73.8179 69.5665,72.4845 70.5,70.5C 72.6455,68.5829 74.9788,68.2496 77.5,69.5 Z"/></g>
<g><path style="opacity:1" fill="#1d281f" d="M 146.5,104.5 C 144.039,124.63 132.705,136.297 112.5,139.5C 111.5,139.5 110.5,139.5 109.5,139.5C 102.954,138.863 96.9536,136.696 91.5,133C 87.9349,129.604 84.6015,126.104 81.5,122.5C 80.6297,118.423 79.4631,114.423 78,110.5C 77.5008,105.845 77.3342,101.179 77.5,96.5C 81.6809,84.3187 89.6809,75.6521 101.5,70.5C 124.654,66.8183 139.488,76.1517 146,98.5C 146.495,100.473 146.662,102.473 146.5,104.5 Z"/></g>
<g><path style="opacity:1" fill="#99a3a7" d="M 79.5,71.5 C 80.3764,71.3691 81.0431,71.7025 81.5,72.5C 80.8763,74.754 79.543,76.4206 77.5,77.5C 77.1667,77.1667 76.8333,76.8333 76.5,76.5C 77.9524,75.0603 78.9524,73.3936 79.5,71.5 Z"/></g>
<g><path style="opacity:1" fill="#e5721c" d="M 122.5,67.5 C 125.237,68.031 127.904,68.8644 130.5,70C 134.224,72.52 137.891,75.02 141.5,77.5C 146.27,81.3627 149.27,86.3627 150.5,92.5C 150.763,96.6002 150.43,100.6 149.5,104.5C 148.5,104.5 147.5,104.5 146.5,104.5C 146.662,102.473 146.495,100.473 146,98.5C 139.488,76.1517 124.654,66.8183 101.5,70.5C 100.475,70.1034 100.308,69.4368 101,68.5C 102.067,67.8095 103.234,67.3095 104.5,67C 110.522,66.4248 116.522,66.5915 122.5,67.5 Z"/></g>
<g><path style="opacity:1" fill="#e68a33" d="M 110.5,65.5 C 114.79,65.1977 118.79,65.8643 122.5,67.5C 116.522,66.5915 110.522,66.4248 104.5,67C 103.234,67.3095 102.067,67.8095 101,68.5C 100.308,69.4368 100.475,70.1034 101.5,70.5C 89.6809,75.6521 81.6809,84.3187 77.5,96.5C 77.7148,94.8212 77.0481,93.8212 75.5,93.5C 75.5018,89.8355 76.8352,86.8355 79.5,84.5C 82.1231,80.2092 85.4564,76.5425 89.5,73.5C 92.5189,70.3206 96.1856,68.154 100.5,67C 103.726,65.8011 107.059,65.3011 110.5,65.5 Z"/></g>
<g><path style="opacity:1" fill="#f5db99" d="M 89.5,73.5 C 85.4564,76.5425 82.1231,80.2092 79.5,84.5C 80.7984,78.8728 84.1317,75.2062 89.5,73.5 Z"/></g>
<g><path style="opacity:1" fill="#73b830" d="M 137.5,87.5 C 136.209,87.2627 135.209,87.596 134.5,88.5C 134.167,88.5 133.833,88.5 133.5,88.5C 129.833,88.5 126.167,88.5 122.5,88.5C 122.5,89.5 122.5,90.5 122.5,91.5C 119.681,93.4188 117.014,95.5855 114.5,98C 107.872,97.7934 104.872,100.96 105.5,107.5C 105.286,109.144 105.62,110.644 106.5,112C 104.283,113.275 101.949,114.275 99.5,115C 98.4421,119.603 95.7754,121.436 91.5,120.5C 93.3788,118.93 93.7122,117.264 92.5,115.5C 90.0852,114.352 88.0852,115.018 86.5,117.5C 85.0274,114.811 83.3607,112.144 81.5,109.5C 81.2322,107.901 81.5655,106.568 82.5,105.5C 84.717,106.369 87.0504,106.702 89.5,106.5C 89.5,105.167 89.5,103.833 89.5,102.5C 87.3926,101.532 85.0593,101.198 82.5,101.5C 82.3011,98.059 82.8011,94.7256 84,91.5C 84.7697,90.4019 85.603,90.4019 86.5,91.5C 92.5288,94.4998 93.5288,93.4998 89.5,88.5C 88.4489,87.7777 87.7822,86.7777 87.5,85.5C 98.4905,72.1342 111.824,69.3009 127.5,77C 131.734,79.7319 135.067,83.2319 137.5,87.5 Z"/></g>
<g><path style="opacity:1" fill="#e7f2de" d="M 96.5,79.5 C 100.009,79.8079 101.676,81.8079 101.5,85.5C 98.4304,84.7571 96.7637,82.7571 96.5,79.5 Z"/></g>
<g><path style="opacity:1" fill="#e0efd5" d="M 124.5,79.5 C 125.5,79.5 126.5,79.5 127.5,79.5C 127.405,82.2723 126.071,84.2723 123.5,85.5C 122.23,83.2432 122.564,81.2432 124.5,79.5 Z"/></g>
<g><path style="opacity:1" fill="#e8f7df" d="M 110.5,75.5 C 111.5,75.5 112.5,75.5 113.5,75.5C 113.5,77.8333 113.5,80.1667 113.5,82.5C 112.5,82.5 111.5,82.5 110.5,82.5C 110.5,80.1667 110.5,77.8333 110.5,75.5 Z"/></g>
<g><path style="opacity:1" fill="#e1e1d5" d="M 108.5,63.5 C 112.514,63.3345 116.514,63.5012 120.5,64C 121.737,64.2321 122.737,64.7321 123.5,65.5C 119.011,64.4285 114.678,64.4285 110.5,65.5C 107.059,65.3011 103.726,65.8011 100.5,67C 96.1856,68.154 92.5189,70.3206 89.5,73.5C 84.1317,75.2062 80.7984,78.8728 79.5,84.5C 76.8352,86.8355 75.5018,89.8355 75.5,93.5C 74.2616,95.2143 73.595,97.2143 73.5,99.5C 72.5166,103.298 72.1832,107.298 72.5,111.5C 71.5151,107.366 71.1818,103.032 71.5,98.5C 75.7464,78.2529 88.0797,66.5862 108.5,63.5 Z"/></g>
<g><path style="opacity:1" fill="#e5f2d8" d="M 89.5,88.5 C 93.5288,93.4998 92.5288,94.4998 86.5,91.5C 86.5,90.5 86.5,89.5 86.5,88.5C 87.5,88.5 88.5,88.5 89.5,88.5 Z"/></g>
<g><path style="opacity:1" fill="#133521" d="M 129.5,96.5 C 129.349,92.686 127.349,91.0193 123.5,91.5C 125.011,89.5589 127.011,89.0589 129.5,90C 130.811,92.2735 130.811,94.4402 129.5,96.5 Z"/></g>
<g><path style="opacity:1" fill="#14222a" d="M 121.5,60.5 C 128.416,61.9052 134.583,64.9052 140,69.5C 140.465,68.0692 141.299,66.9025 142.5,66C 144.723,64.2669 147.056,62.7669 149.5,61.5C 161.481,67.7906 161.481,74.1239 149.5,80.5C 154.313,87.7523 156.313,95.7523 155.5,104.5C 153.96,131.211 139.793,146.211 113,149.5C 102.728,149.428 93.561,146.428 85.5,140.5C 85.9382,140.565 86.2716,140.399 86.5,140C 78.9841,134.32 73.6507,126.987 70.5,118C 70.8361,116.97 71.5028,116.47 72.5,116.5C 73.5665,118.964 74.8998,121.297 76.5,123.5C 76.3284,124.492 76.6618,125.158 77.5,125.5C 77.7376,127.404 78.7376,128.738 80.5,129.5C 84.922,136.724 91.2553,141.558 99.5,144C 103.813,144.735 108.147,145.235 112.5,145.5C 118.075,145.418 123.409,144.252 128.5,142C 133.285,139.292 137.619,136.125 141.5,132.5C 145.237,130.137 147.57,126.803 148.5,122.5C 150.463,116.761 151.796,110.761 152.5,104.5C 152.461,100.267 151.795,96.2671 150.5,92.5C 149.27,86.3627 146.27,81.3627 141.5,77.5C 136.839,71.5021 130.839,67.5021 123.5,65.5C 122.737,64.7321 121.737,64.2321 120.5,64C 116.514,63.5012 112.514,63.3345 108.5,63.5C 112.802,62.7702 117.136,61.7702 121.5,60.5 Z"/></g>
<g><path style="opacity:1" fill="#638b4d" d="M 144.5,73.5 C 146.728,74.3218 147.395,75.6552 146.5,77.5C 145.145,76.8118 144.145,75.8118 143.5,74.5C 144.167,74.5 144.5,74.1667 144.5,73.5 Z"/></g>
<g><path style="opacity:1" fill="#b6c2c0" d="M 144.5,73.5 C 144.5,74.1667 144.167,74.5 143.5,74.5C 142.427,73.7494 142.26,72.7494 143,71.5C 143.717,72.0442 144.217,72.7109 144.5,73.5 Z"/></g>
<g><path style="opacity:1" fill="#bb6b23" d="M 150.5,67.5 C 154.271,69.7848 154.438,72.4514 151,75.5C 149.198,74.2107 148.031,72.5441 147.5,70.5C 148.167,69.1667 149.167,68.1667 150.5,67.5 Z"/></g>
<g><path style="opacity:1" fill="#dcd7c3" d="M 150.5,67.5 C 149.167,68.1667 148.167,69.1667 147.5,70.5C 145.236,68.788 145.736,67.4547 149,66.5C 149.765,66.5699 150.265,66.9033 150.5,67.5 Z"/></g>
<g><path style="opacity:1" fill="#7ba84b" d="M 87.5,85.5 C 87.7822,86.7777 88.4489,87.7777 89.5,88.5C 88.5,88.5 87.5,88.5 86.5,88.5C 86.5,89.5 86.5,90.5 86.5,91.5C 85.603,90.4019 84.7697,90.4019 84,91.5C 82.8011,94.7256 82.3011,98.059 82.5,101.5C 85.0593,101.198 87.3926,101.532 89.5,102.5C 87.1667,102.5 84.8333,102.5 82.5,102.5C 82.5,103.5 82.5,104.5 82.5,105.5C 81.5655,106.568 81.2322,107.901 81.5,109.5C 80.3752,104.297 80.5419,98.964 82,93.5C 83.104,90.2788 84.9374,87.6122 87.5,85.5 Z"/></g>
<g><path style="opacity:1" fill="#87511e" d="M 150.5,92.5 C 151.795,96.2671 152.461,100.267 152.5,104.5C 151.5,104.5 150.5,104.5 149.5,104.5C 150.43,100.6 150.763,96.6002 150.5,92.5 Z"/></g>
<g><path style="opacity:1" fill="#dee9d9" d="M 141.5,106.5 C 138.721,106.721 136.054,106.388 133.5,105.5C 133.414,104.504 133.748,103.671 134.5,103C 136.81,102.503 139.143,102.337 141.5,102.5C 141.5,103.833 141.5,105.167 141.5,106.5 Z"/></g>
<g><path style="opacity:1" fill="#e3f1d5" d="M 89.5,102.5 C 89.5,103.833 89.5,105.167 89.5,106.5C 87.0504,106.702 84.717,106.369 82.5,105.5C 82.5,104.5 82.5,103.5 82.5,102.5C 84.8333,102.5 87.1667,102.5 89.5,102.5 Z"/></g>
<g><path style="opacity:1" fill="#172f2f" d="M 122.5,91.5 C 122.833,91.5 123.167,91.5 123.5,91.5C 127.349,91.0193 129.349,92.686 129.5,96.5C 123.639,100.194 118.972,105.027 115.5,111C 111.082,112.419 107.749,111.252 105.5,107.5C 104.872,100.96 107.872,97.7934 114.5,98C 117.014,95.5855 119.681,93.4188 122.5,91.5 Z"/></g>
<g><path style="opacity:1" fill="#d4dce0" d="M 124.5,93.5 C 126.028,93.5173 126.528,94.184 126,95.5C 122.922,97.9554 119.756,100.289 116.5,102.5C 116.222,108.507 113.722,109.84 109,106.5C 108.28,104.888 108.446,103.388 109.5,102C 115.364,100.733 120.364,97.9 124.5,93.5 Z"/></g>
<g><path style="opacity:1" fill="#2f7918" d="M 133.5,105.5 C 136.054,106.388 138.721,106.721 141.5,106.5C 140.964,109.555 140.131,112.555 139,115.5C 137.644,114.62 136.144,114.286 134.5,114.5C 133.5,114.5 132.5,114.5 131.5,114.5C 130.069,114.881 129.236,115.881 129,117.5C 128.329,116.748 127.496,116.414 126.5,116.5C 129.255,113.083 131.588,109.417 133.5,105.5 Z"/></g>
<g><path style="opacity:1" fill="#dab491" d="M 73.5,99.5 C 72.9137,107.745 73.9137,115.745 76.5,123.5C 74.8998,121.297 73.5665,118.964 72.5,116.5C 72.5,114.833 72.5,113.167 72.5,111.5C 72.1832,107.298 72.5166,103.298 73.5,99.5 Z"/></g>
<g><path style="opacity:1" fill="#33434d" d="M 73.5,80.5 C 74.2389,80.369 74.9056,80.5357 75.5,81C 69.5017,90.323 67.3351,100.49 69,111.5C 70.0411,107.094 70.8744,102.761 71.5,98.5C 71.1818,103.032 71.5151,107.366 72.5,111.5C 72.5,113.167 72.5,114.833 72.5,116.5C 71.5028,116.47 70.8361,116.97 70.5,118C 73.6507,126.987 78.9841,134.32 86.5,140C 86.2716,140.399 85.9382,140.565 85.5,140.5C 70.1593,129.001 64.326,113.668 68,94.5C 69.0116,89.482 70.8449,84.8153 73.5,80.5 Z"/></g>
<g><path style="opacity:1" fill="#529a1d" d="M 134.5,88.5 C 135.209,87.596 136.209,87.2627 137.5,87.5C 138.906,87.9731 139.573,88.9731 139.5,90.5C 139.651,95.5198 137.484,99.1864 133,101.5C 132.235,103.066 132.402,104.399 133.5,105.5C 131.588,109.417 129.255,113.083 126.5,116.5C 120.658,119.617 114.658,122.45 108.5,125C 105.829,125.833 103.496,125.333 101.5,123.5C 99.4862,123.392 97.8195,124.058 96.5,125.5C 95.1411,126.007 94.1411,127.007 93.5,128.5C 92.3777,127.37 91.0443,126.703 89.5,126.5C 84.4193,122.004 81.7526,116.337 81.5,109.5C 83.3607,112.144 85.0274,114.811 86.5,117.5C 86.5,118.5 86.5,119.5 86.5,120.5C 89.7124,120.288 91.7124,118.621 92.5,115.5C 93.7122,117.264 93.3788,118.93 91.5,120.5C 95.7754,121.436 98.4421,119.603 99.5,115C 101.949,114.275 104.283,113.275 106.5,112C 105.62,110.644 105.286,109.144 105.5,107.5C 107.749,111.252 111.082,112.419 115.5,111C 118.972,105.027 123.639,100.194 129.5,96.5C 130.811,94.4402 130.811,92.2735 129.5,90C 127.011,89.0589 125.011,89.5589 123.5,91.5C 123.167,91.5 122.833,91.5 122.5,91.5C 122.5,90.5 122.5,89.5 122.5,88.5C 126.167,88.5 129.833,88.5 133.5,88.5C 131.681,89.9362 131.348,91.6029 132.5,93.5C 134.754,92.8763 136.421,91.543 137.5,89.5C 136.675,88.6143 135.675,88.281 134.5,88.5 Z"/></g>
<g><path style="opacity:1" fill="#dceed9" d="M 133.5,88.5 C 133.833,88.5 134.167,88.5 134.5,88.5C 135.675,88.281 136.675,88.6143 137.5,89.5C 136.421,91.543 134.754,92.8763 132.5,93.5C 131.348,91.6029 131.681,89.9362 133.5,88.5 Z"/></g>
<g><path style="opacity:1" fill="#ddebd0" d="M 92.5,115.5 C 91.7124,118.621 89.7124,120.288 86.5,120.5C 86.5,119.5 86.5,118.5 86.5,117.5C 88.0852,115.018 90.0852,114.352 92.5,115.5 Z"/></g>
<g><path style="opacity:1" fill="#e27320" d="M 75.5,93.5 C 77.0481,93.8212 77.7148,94.8212 77.5,96.5C 77.3342,101.179 77.5008,105.845 78,110.5C 79.4631,114.423 80.6297,118.423 81.5,122.5C 79.955,121.77 79.1216,120.437 79,118.5C 77.7978,120.677 77.2978,123.011 77.5,125.5C 76.6618,125.158 76.3284,124.492 76.5,123.5C 73.9137,115.745 72.9137,107.745 73.5,99.5C 73.595,97.2143 74.2616,95.2143 75.5,93.5 Z"/></g>
<g><path style="opacity:1" fill="#dfeddb" d="M 101.5,123.5 C 101.405,126.272 100.071,128.272 97.5,129.5C 96.5713,128.311 96.238,126.978 96.5,125.5C 97.8195,124.058 99.4862,123.392 101.5,123.5 Z"/></g>
<g><path style="opacity:1" fill="#2f7423" d="M 139.5,90.5 C 145.708,105.721 142.708,118.888 130.5,130C 118.381,136.908 106.048,137.241 93.5,131C 91.9586,129.629 90.6253,128.129 89.5,126.5C 91.0443,126.703 92.3777,127.37 93.5,128.5C 94.1411,127.007 95.1411,126.007 96.5,125.5C 96.238,126.978 96.5713,128.311 97.5,129.5C 100.071,128.272 101.405,126.272 101.5,123.5C 103.496,125.333 105.829,125.833 108.5,125C 114.658,122.45 120.658,119.617 126.5,116.5C 127.496,116.414 128.329,116.748 129,117.5C 129.236,115.881 130.069,114.881 131.5,114.5C 131.833,118.167 133.833,120.167 137.5,120.5C 137.545,117.923 136.545,115.923 134.5,114.5C 136.144,114.286 137.644,114.62 139,115.5C 140.131,112.555 140.964,109.555 141.5,106.5C 141.5,105.167 141.5,103.833 141.5,102.5C 139.143,102.337 136.81,102.503 134.5,103C 133.748,103.671 133.414,104.504 133.5,105.5C 132.402,104.399 132.235,103.066 133,101.5C 137.484,99.1864 139.651,95.5198 139.5,90.5 Z"/></g>
<g><path style="opacity:1" fill="#e1ede5" d="M 122.5,123.5 C 126.314,123.651 127.981,125.651 127.5,129.5C 124.43,128.757 122.764,126.757 122.5,123.5 Z"/></g>
<g><path style="opacity:1" fill="#d6e8d7" d="M 131.5,114.5 C 132.5,114.5 133.5,114.5 134.5,114.5C 136.545,115.923 137.545,117.923 137.5,120.5C 133.833,120.167 131.833,118.167 131.5,114.5 Z"/></g>
<g><path style="opacity:1" fill="#0f351d" d="M 148.5,122.5 C 147.57,126.803 145.237,130.137 141.5,132.5C 143.062,128.608 145.395,125.275 148.5,122.5 Z"/></g>
<g><path style="opacity:1" fill="#d2e9d5" d="M 110.5,126.5 C 111.5,126.5 112.5,126.5 113.5,126.5C 113.5,128.833 113.5,131.167 113.5,133.5C 112.5,133.5 111.5,133.5 110.5,133.5C 110.5,131.167 110.5,128.833 110.5,126.5 Z"/></g>
<g><path style="opacity:1" fill="#5a9f25" d="M 146.5,104.5 C 147.5,104.5 148.5,104.5 149.5,104.5C 147.724,127.608 135.39,140.608 112.5,143.5C 112.5,142.167 112.5,140.833 112.5,139.5C 132.705,136.297 144.039,124.63 146.5,104.5 Z"/></g>
<g><path style="opacity:1" fill="#2c721f" d="M 149.5,104.5 C 150.5,104.5 151.5,104.5 152.5,104.5C 151.796,110.761 150.463,116.761 148.5,122.5C 145.395,125.275 143.062,128.608 141.5,132.5C 137.619,136.125 133.285,139.292 128.5,142C 123.409,144.252 118.075,145.418 112.5,145.5C 112.5,144.833 112.5,144.167 112.5,143.5C 135.39,140.608 147.724,127.608 149.5,104.5 Z"/></g>
<g><path style="opacity:1" fill="#e46211" d="M 81.5,122.5 C 84.6015,126.104 87.9349,129.604 91.5,133C 96.9536,136.696 102.954,138.863 109.5,139.5C 110.806,140.467 111.473,141.801 111.5,143.5C 107.393,143.482 103.393,142.815 99.5,141.5C 92.6368,138.241 86.3035,134.241 80.5,129.5C 78.7376,128.738 77.7376,127.404 77.5,125.5C 77.2978,123.011 77.7978,120.677 79,118.5C 79.1216,120.437 79.955,121.77 81.5,122.5 Z"/></g>
<g><path style="opacity:1" fill="#ac4611" d="M 80.5,129.5 C 86.3035,134.241 92.6368,138.241 99.5,141.5C 103.393,142.815 107.393,143.482 111.5,143.5C 111.473,141.801 110.806,140.467 109.5,139.5C 110.5,139.5 111.5,139.5 112.5,139.5C 112.5,140.833 112.5,142.167 112.5,143.5C 112.5,144.167 112.5,144.833 112.5,145.5C 108.147,145.235 103.813,144.735 99.5,144C 91.2553,141.558 84.922,136.724 80.5,129.5 Z"/></g>
<g><path style="opacity:0.994" fill="#132022" d="M 22.5,191.5 C 17.3234,189.496 13.4901,185.829 11,180.5C 10.6744,175.928 10.5078,171.595 10.5,167.5C 16.5292,158.551 24.5292,156.385 34.5,161C 37.7118,163.019 39.3784,165.853 39.5,169.5C 33.5122,169.711 27.8455,168.878 22.5,167C 16.7858,171.253 16.1192,176.253 20.5,182C 24.6354,184.309 28.302,183.809 31.5,180.5C 28.8333,179.833 26.1667,179.167 23.5,178.5C 22.1667,176.833 22.1667,175.167 23.5,173.5C 29.1278,172.505 34.7945,172.171 40.5,172.5C 41.4014,185.267 35.4014,191.601 22.5,191.5 Z"/></g>
<g><path style="opacity:0.977" fill="#5ca02c" d="M 124.5,159.5 C 131.532,159.17 138.532,159.503 145.5,160.5C 145.091,162.991 143.924,164.991 142,166.5C 138.865,165.201 135.699,165.201 132.5,166.5C 131.05,167.85 130.383,169.516 130.5,171.5C 133.5,171.5 136.5,171.5 139.5,171.5C 139.756,173.792 139.423,175.959 138.5,178C 135.242,178.212 132.076,178.712 129,179.5C 128.594,183.272 127.761,186.939 126.5,190.5C 123.589,191.983 120.922,191.65 118.5,189.5C 120.504,179.471 122.504,169.471 124.5,159.5 Z"/></g>
<g><path style="opacity:1" fill="#132022" d="M 73.5,159.5 C 76.1667,159.5 78.8333,159.5 81.5,159.5C 81.5,161.5 81.5,163.5 81.5,165.5C 83.1439,165.286 84.6439,165.62 86,166.5C 85.8651,168.425 85.6984,170.425 85.5,172.5C 84.1667,172.5 82.8333,172.5 81.5,172.5C 81.5,176.167 81.5,179.833 81.5,183.5C 86.378,183.535 87.7113,185.868 85.5,190.5C 81.5514,191.599 77.8848,190.932 74.5,188.5C 73.1356,180.597 71.4689,172.93 69.5,165.5C 70.5,165.5 71.5,165.5 72.5,165.5C 72.3253,163.379 72.6586,161.379 73.5,159.5 Z"/></g>
<g><path style="opacity:1" fill="#122023" d="M 89.5,159.5 C 92.7216,159.108 95.7216,159.608 98.5,161C 97.8455,170.758 97.8455,180.591 98.5,190.5C 95.5,190.5 92.5,190.5 89.5,190.5C 89.5,180.167 89.5,169.833 89.5,159.5 Z"/></g>
<g><path style="opacity:0.998" fill="#121f22" d="M 104.5,159.5 C 107.167,159.5 109.833,159.5 112.5,159.5C 112.5,161.5 112.5,163.5 112.5,165.5C 114.167,165.5 115.833,165.5 117.5,165.5C 117.662,167.527 117.495,169.527 117,171.5C 115.644,172.38 114.144,172.714 112.5,172.5C 112.335,175.85 112.502,179.183 113,182.5C 117.046,183.555 118.546,186.221 117.5,190.5C 114.15,190.665 110.817,190.498 107.5,190C 106.667,189.167 105.833,188.333 105,187.5C 104.667,182.833 104.333,178.167 104,173.5C 99.3333,170.5 99.3333,167.5 104,164.5C 104.494,162.866 104.66,161.199 104.5,159.5 Z"/></g>
<g><path style="opacity:0.996" fill="#5da02f" d="M 204.5,159.5 C 207.572,159.183 210.572,159.516 213.5,160.5C 212.691,162.071 212.357,163.738 212.5,165.5C 214.288,165.215 215.955,165.548 217.5,166.5C 216.846,168.115 216.346,169.782 216,171.5C 214.004,171.996 212.337,172.996 211,174.5C 210.304,177.478 209.804,180.478 209.5,183.5C 210.833,183.5 212.167,183.5 213.5,183.5C 213.808,185.924 213.474,188.257 212.5,190.5C 209.154,191.605 205.821,191.438 202.5,190C 201.106,188.261 200.439,186.261 200.5,184C 201.105,180.143 201.772,176.31 202.5,172.5C 201.5,172.5 200.5,172.5 199.5,172.5C 199.993,170.194 200.326,167.861 200.5,165.5C 204.068,165.241 205.401,163.241 204.5,159.5 Z"/></g>
<g><path style="opacity:0.985" fill="#5ca02d" d="M 152.5,165.5 C 156.584,165.043 160.417,165.71 164,167.5C 166.456,165.679 169.289,165.012 172.5,165.5C 171.661,173.537 170.494,181.537 169,189.5C 165.87,192.122 162.703,192.122 159.5,189.5C 152.983,193.075 147.816,191.742 144,185.5C 142.327,176.798 145.161,170.132 152.5,165.5 Z M 156.5,172.5 C 162.527,173.004 164.027,176.004 161,181.5C 156.907,185.692 154.074,185.026 152.5,179.5C 152.577,176.335 153.91,174.001 156.5,172.5 Z"/></g>
<g><path style="opacity:0.993" fill="#5ca02c" d="M 180.5,165.5 C 183.85,165.335 187.183,165.502 190.5,166C 195.024,167.069 196.691,169.735 195.5,174C 192.351,175.035 189.684,174.368 187.5,172C 186.207,171.51 184.873,171.343 183.5,171.5C 183.281,172.675 183.614,173.675 184.5,174.5C 188.507,175.664 192.007,177.664 195,180.5C 196.186,185.996 194.019,189.496 188.5,191C 183.595,191.995 179.095,191.161 175,188.5C 173.872,186.655 173.372,184.655 173.5,182.5C 177.858,181.846 181.691,182.846 185,185.5C 186.28,185.387 187.113,184.72 187.5,183.5C 183.374,181.627 179.541,179.294 176,176.5C 174.776,171.626 176.276,167.959 180.5,165.5 Z"/></g>
<g><path style="opacity:0.995" fill="#131f21" d="M 50.5,165.5 C 62.6305,163.305 68.6305,168.305 68.5,180.5C 62.7945,180.171 57.1278,180.505 51.5,181.5C 52.2116,183.046 53.3783,184.046 55,184.5C 58.6036,182.405 62.437,181.572 66.5,182C 66.9574,182.414 67.2907,182.914 67.5,183.5C 62.3945,191.863 55.3945,193.697 46.5,189C 41.9553,182.842 41.4553,176.342 45,169.5C 46.4998,167.531 48.3331,166.198 50.5,165.5 Z M 54.5,171.5 C 56.6449,171.738 58.3115,172.738 59.5,174.5C 56.8333,175.833 54.1667,175.833 51.5,174.5C 52.3398,173.265 53.3398,172.265 54.5,171.5 Z"/></g>
<g><path style="opacity:0.62" fill="#344246" d="M 10.5,167.5 C 10.5078,171.595 10.6744,175.928 11,180.5C 13.4901,185.829 17.3234,189.496 22.5,191.5C 10.092,187.747 6.09196,179.747 10.5,167.5 Z"/></g>
</svg>
