<svg xmlns="http://www.w3.org/2000/svg" xmlns:xlink="http://www.w3.org/1999/xlink" width="500" zoomAndPan="magnify" viewBox="0 0 375 374.999991" height="500" preserveAspectRatio="xMidYMid meet" version="1.0"><defs><g/><clipPath id="436d88b75e"><path d="M 55.050781 55.050781 L 319.949219 55.050781 L 319.949219 319.949219 L 55.050781 319.949219 Z M 55.050781 55.050781 " clip-rule="nonzero"/></clipPath><clipPath id="1be4a36530"><path d="M 187.5 55.050781 C 114.347656 55.050781 55.050781 114.347656 55.050781 187.5 C 55.050781 260.652344 114.347656 319.949219 187.5 319.949219 C 260.652344 319.949219 319.949219 260.652344 319.949219 187.5 C 319.949219 114.347656 260.652344 55.050781 187.5 55.050781 Z M 187.5 55.050781 " clip-rule="nonzero"/></clipPath><clipPath id="00dbaa4a86"><path d="M 65.378906 65.378906 L 309.621094 65.378906 L 309.621094 309.621094 L 65.378906 309.621094 Z M 65.378906 65.378906 " clip-rule="nonzero"/></clipPath><clipPath id="5d4cb9019f"><path d="M 187.5 65.378906 C 120.054688 65.378906 65.378906 120.054688 65.378906 187.5 C 65.378906 254.945312 120.054688 309.617188 187.5 309.617188 C 254.945312 309.617188 309.621094 254.945312 309.621094 187.5 C 309.621094 120.054688 254.945312 65.378906 187.5 65.378906 Z M 187.5 65.378906 " clip-rule="nonzero"/></clipPath><clipPath id="d06a9bb370"><path d="M 65.378906 65.378906 L 309.609375 65.378906 L 309.609375 309.609375 L 65.378906 309.609375 Z M 65.378906 65.378906 " clip-rule="nonzero"/></clipPath><clipPath id="dcbc41e753"><path d="M 187.496094 65.378906 C 120.054688 65.378906 65.378906 120.054688 65.378906 187.496094 C 65.378906 254.9375 120.054688 309.609375 187.496094 309.609375 C 254.9375 309.609375 309.609375 254.9375 309.609375 187.496094 C 309.609375 120.054688 254.9375 65.378906 187.496094 65.378906 Z M 187.496094 65.378906 " clip-rule="nonzero"/></clipPath></defs><g clip-path="url(#436d88b75e)"><g clip-path="url(#1be4a36530)"><path fill="#eff1ed" d="M 55.050781 55.050781 L 319.949219 55.050781 L 319.949219 319.949219 L 55.050781 319.949219 Z M 55.050781 55.050781 " fill-opacity="1" fill-rule="nonzero"/></g></g><g clip-path="url(#00dbaa4a86)"><g clip-path="url(#5d4cb9019f)"><path fill="#bcbd8b" d="M 65.378906 65.378906 L 309.617188 65.378906 L 309.617188 309.617188 L 65.378906 309.617188 Z M 65.378906 65.378906 " fill-opacity="1" fill-rule="nonzero"/></g></g><g clip-path="url(#d06a9bb370)"><g clip-path="url(#dcbc41e753)"><path stroke-linecap="butt" transform="matrix(0.75, 0, 0, 0.75, 65.380855, 65.380851)" fill="none" stroke-linejoin="miter" d="M 162.820328 -0.00259288 C 72.898448 -0.00259288 -0.00259888 72.898454 -0.00259888 162.820334 C -0.00259888 252.742215 72.898448 325.638054 162.820328 325.638054 C 252.742209 325.638054 325.638048 252.742215 325.638048 162.820334 C 325.638048 72.898454 252.742209 -0.00259288 162.820328 -0.00259288 Z M 162.820328 -0.00259288 " stroke="#303030" stroke-width="12" stroke-opacity="1" stroke-miterlimit="4"/></g></g><path stroke-linecap="butt" transform="matrix(0.969664, -0.147449, 0.147449, 0.969664, 29.806912, 155.015951)" fill="none" stroke-linejoin="miter" d="M 57.804991 63.588702 C 53.623355 63.589333 49.981135 62.797812 46.869257 61.220817 C 43.758923 59.660171 41.377709 57.569871 39.725019 54.953856 C 38.055981 52.339382 37.220944 49.432769 37.224444 46.230676 C 37.223581 43.825555 37.650627 41.626499 38.506781 39.625632 C 39.362336 37.628703 40.564678 36.026926 42.113208 34.824238 C 43.645389 33.623093 45.428429 33.024078 47.455051 33.022058 C 48.389487 33.023153 48.853107 33.391758 48.854386 34.125132 C 48.852418 36.469396 49.498287 38.553638 50.793189 40.369983 C 52.083556 42.189667 53.836172 43.592198 56.045905 44.584852 C 58.269844 45.563552 60.733651 46.050999 63.436727 46.051131 C 66.820793 46.050074 69.669035 45.254502 71.982053 43.660478 C 74.296866 42.054641 76.130057 39.827698 77.480427 36.987522 C 77.783364 36.37292 77.742823 35.871255 77.367277 35.479787 C 77.009875 35.074964 76.608441 35.118661 76.174788 35.612675 C 74.880617 37.341485 73.370791 38.687025 71.645311 39.649298 C 69.9301 40.597018 68.001194 41.069112 65.850117 41.068321 C 62.212007 41.071032 59.17768 39.513887 56.742003 36.404162 C 54.310861 33.291099 53.090048 28.815151 53.092573 22.970242 C 53.091953 18.099741 54.002255 13.46444 55.820142 9.059802 C 57.63743 4.659101 60.131396 0.735943 63.30144 -2.705734 C 66.475421 -6.146812 70.103646 -8.866207 74.190652 -10.867257 C 78.291266 -12.878323 82.590141 -13.888383 87.085481 -13.885624 C 92.000491 -13.887533 95.704645 -12.65555 98.197942 -10.189674 C 100.69124 -7.723797 101.938183 -4.585354 101.937576 -0.766467 C 101.93917 2.057725 101.277533 4.474902 99.956003 6.4896 C 98.632931 8.48795 96.957155 9.997594 94.928078 11.022469 C 92.901994 12.027657 90.742414 12.533159 88.458409 12.532297 C 87.544259 12.530258 86.679042 12.285895 85.868493 11.787995 C 85.069756 11.291891 84.861519 10.6479 85.236507 9.850888 C 86.090702 7.942378 86.229252 6.130498 85.643682 4.417986 C 85.056571 2.689127 83.500196 1.824022 80.974557 1.822673 C 78.826819 1.826419 76.90323 2.396005 75.206529 3.539906 C 73.520697 4.665317 72.183357 6.121684 71.193909 7.912944 C 70.217472 9.698125 69.72628 11.577236 69.728807 13.547537 C 69.725845 16.189755 70.522715 18.393642 72.116679 20.150723 C 73.724849 21.89385 75.972829 22.767438 78.85728 22.76695 C 80.464831 22.765661 82.048899 22.494922 83.613423 21.955334 C 85.176404 21.399397 86.574825 20.415591 87.805348 18.999379 C 88.618657 18.128023 89.465485 17.725036 90.354905 17.783742 C 91.239788 17.845787 91.990403 18.181492 92.605554 18.798732 C 93.224641 19.416571 93.442133 20.158652 93.261367 21.029511 C 92.404707 24.64974 91.481161 27.941551 90.486792 30.904345 C 89.513307 33.862257 88.437907 37.066521 87.266324 40.505924 C 85.77713 45.000829 83.603638 48.988832 80.749186 52.474469 C 77.89653 55.948295 74.506001 58.667578 70.584874 60.637454 C 66.676159 62.605188 62.41751 63.589137 57.804991 63.588702 Z M 111.634116 54.99954 C 107.935747 55.001145 104.89936 54.172837 102.528295 52.519154 C 100.1675 50.850919 98.415309 48.650818 97.272322 45.914914 C 96.13113 43.167198 95.575375 40.145942 95.604458 36.855086 C 95.637479 33.564828 96.206749 30.271515 97.319545 26.980283 C 98.43234 23.68905 100.030402 20.677059 102.122203 17.94157 C 104.207926 15.193071 106.750613 12.989417 109.74119 11.337285 C 112.730225 9.668805 116.103757 8.836284 119.862385 8.835786 C 122.746836 8.835298 125.098091 9.374114 126.915554 10.456172 C 128.734812 11.526418 130.07264 12.954501 130.929039 14.740423 C 131.784839 16.530282 132.212079 18.436255 132.2135 20.466814 C 132.213745 22.69056 131.598991 24.905386 130.364704 27.114632 C 129.146166 29.326272 127.425232 31.159382 125.201303 32.617901 C 122.992181 34.058529 120.380599 34.781319 117.359283 34.781137 C 116.066035 34.781878 114.802906 34.690517 113.573235 34.511588 C 112.338085 34.315712 111.203399 33.909519 110.169178 33.29301 C 109.854255 33.112183 109.505114 33.103405 109.129629 33.267874 C 108.772288 33.418987 108.589158 33.802043 108.592051 34.418837 C 108.591199 36.013977 109.530475 37.228375 111.408683 38.069905 C 113.28475 38.899025 115.54646 39.311428 118.193215 39.311051 C 121.335647 39.309508 124.578737 38.513551 127.930958 36.920439 C 131.281038 35.314917 134.003536 32.908983 136.089381 29.709315 C 136.588316 28.971435 137.232215 28.710815 138.03015 28.920776 C 138.840497 29.128596 139.50253 29.543486 140.012913 30.160909 C 140.539644 30.77679 140.623081 31.393746 140.259885 32.007242 C 136.18855 39.521606 131.730728 45.232878 126.894894 49.138318 C 122.070872 53.045554 116.983946 54.999295 111.634116 54.99954 Z M 114.967525 27.859112 C 116.74404 27.859345 118.131978 27.288876 119.139814 26.144966 C 120.163399 25.00345 120.673416 23.848295 120.670462 22.675565 C 120.670777 21.640299 120.318286 20.752808 119.612393 20.017029 C 118.904957 19.264902 117.846625 18.886433 116.436198 18.889498 C 114.647871 18.887469 113.225693 19.444675 112.174201 20.557776 C 111.139057 21.669335 110.61877 22.839042 110.620618 24.072031 C 110.616873 25.050377 110.970561 25.929993 111.677743 26.710281 C 112.382784 27.478158 113.48109 27.858676 114.967525 27.859112 Z M 143.310089 54.998201 C 139.853354 55.000293 137.307399 53.940398 135.667688 51.821857 C 134.046721 49.686023 133.235237 46.91593 133.234434 43.503703 C 133.233632 40.091477 133.908826 36.419482 135.261215 32.479845 C 136.072565 30.137803 136.968377 27.611211 137.943516 24.907343 C 138.937398 22.186183 140.011712 19.22749 141.167058 16.027325 C 139.813552 16.02696 138.787662 15.673568 138.081515 14.965949 C 137.375368 14.258331 136.90853 13.434021 136.6822 12.485145 C 136.473415 11.526852 136.471355 10.692647 136.683894 9.98373 C 136.908245 9.276609 137.300058 8.925286 137.855995 8.925225 C 140.559071 8.925356 142.679764 8.172233 144.209003 6.672534 C 145.757583 5.151606 146.840352 3.567902 147.458505 1.913549 C 148.570509 -0.789649 149.643677 -2.495666 150.681947 -3.203904 C 151.733825 -3.922158 152.84446 -4.28503 154.016592 -4.284046 C 155.74466 -4.283123 156.818438 -3.555858 157.241264 -2.097716 C 157.67436 -0.654126 157.188506 1.507789 155.77463 4.394706 C 155.097141 5.882927 154.724244 7.010591 154.648064 7.776499 C 154.588231 8.540865 154.993136 8.924712 155.863375 8.924103 L 160.665144 8.925116 C 161.281339 8.926161 161.682397 9.361793 161.860444 10.230815 C 162.040287 11.088025 162.02747 12.073048 161.814119 13.184688 C 161.607101 14.281177 161.207312 15.267784 160.619886 16.137232 C 160.034257 16.994868 159.276193 17.423438 158.345695 17.422941 C 155.517565 17.423936 153.42967 17.537493 152.078071 17.763011 C 150.72493 17.972182 149.769925 18.503743 149.216393 19.362232 C 148.658925 20.220122 148.071652 21.69789 147.457314 23.804012 C 146.463057 27.004501 146.602257 29.559568 147.863104 31.467418 C 149.126344 33.359518 151.117378 34.306831 153.836802 34.30542 C 155.685388 34.308555 157.331582 33.894182 158.774786 33.066239 C 160.213454 32.241634 161.395135 31.12013 162.310756 29.708404 C 162.809691 28.970524 163.437841 28.707509 164.207017 28.921154 C 164.985265 29.128122 165.630951 29.544554 166.145869 30.158638 C 166.668663 30.77392 166.784198 31.391729 166.48126 32.006331 C 165.926552 33.058006 165.182381 34.507888 164.252685 36.356576 C 163.333259 38.190711 162.227597 40.189893 160.935699 42.354122 C 159.646196 44.502601 158.133022 46.532471 156.40465 48.440991 C 154.692626 50.347969 152.737477 51.919871 150.543739 53.153358 C 148.366349 54.385303 145.952308 55.001164 143.310089 54.998201 Z M 209.869386 56.10362 C 206.84807 56.103439 204.369162 55.291419 202.432065 53.671498 C 200.494025 52.031291 199.522548 49.88948 199.521573 47.246663 C 199.522983 45.276961 200.065544 43.510401 201.14472 41.950322 C 202.22689 40.370556 203.624813 38.754206 205.338491 37.101273 C 207.066377 35.434386 208.946329 33.456261 210.973214 31.174173 C 213.497857 28.347393 215.654778 25.448582 217.444576 22.473804 C 219.232831 19.482677 220.892582 16.250445 222.423231 12.781044 C 223.972623 9.294351 225.605167 5.393286 227.316328 1.081187 C 224.61036 0.464262 222.102429 0.372952 219.788001 0.810594 C 217.488378 1.230345 215.623455 2.10293 214.197766 3.425009 C 212.783889 4.748884 212.076211 6.462136 212.078667 8.565365 C 212.078302 9.918872 212.414556 11.045601 213.091365 11.946153 C 213.782382 12.832751 214.617662 13.273985 215.596008 13.277729 C 216.03162 14.2544 216.062135 15.431322 215.686356 16.816369 C 215.323587 18.195337 214.602513 19.51982 213.520394 20.781346 C 212.438275 22.042872 211.046967 23.112357 209.351606 23.982526 C 207.666515 24.838143 205.716033 25.266673 203.488349 25.266318 C 200.978461 25.267364 198.860619 24.703614 197.134224 23.579006 C 195.406886 22.434112 194.112877 20.956293 193.257331 19.138273 C 192.386035 17.317858 191.949631 15.366179 191.949316 13.275361 C 191.948695 8.404861 193.301967 3.929572 196.006391 -0.158977 C 198.725023 -4.26148 202.59482 -7.536324 207.616383 -9.987448 C 212.635805 -12.450982 218.556073 -13.68582 225.37599 -13.684087 C 229.871929 -13.685265 233.118337 -13.098957 235.115216 -11.925161 C 237.114489 -10.767115 238.235364 -9.077945 238.473305 -6.85431 C 238.729389 -4.64403 238.459718 -1.969856 237.663691 1.172151 C 236.985401 3.937271 236.168835 7.108382 235.206118 10.684286 C 234.257608 14.246236 233.22968 17.933077 232.117199 21.752086 C 231.005317 25.567157 229.909256 29.251694 228.826275 32.797225 C 227.761439 36.329401 226.766999 39.425122 225.85083 42.085587 C 224.365067 46.637411 222.236712 50.116636 219.470304 52.519921 C 216.705691 54.911394 213.506897 56.104847 209.869386 56.10362 Z M 242.007021 55.000201 C 238.550884 54.998355 236.004331 53.942398 234.365219 51.819919 C 232.743653 49.688022 231.932768 46.913992 231.931366 43.505703 C 231.930563 40.093477 232.610294 36.418143 233.962084 32.482443 C 234.774033 30.136464 235.665309 27.61321 236.644984 24.906004 C 237.634329 22.188183 238.709243 19.225552 239.868526 16.025986 C 238.51502 16.025621 237.485193 15.67163 236.778447 14.967949 C 236.0723 14.260331 235.606061 13.432084 235.379132 12.487145 C 235.170946 11.524914 235.168885 10.69071 235.380826 9.98573 C 235.605177 9.278608 235.997589 8.923348 236.553525 8.923287 C 239.256601 8.923418 241.376696 8.174233 242.910471 6.671195 C 244.458453 5.154204 245.54182 3.566563 246.155437 1.915548 C 247.26804 -0.791587 248.341208 -2.497604 249.378879 -3.201904 C 250.431356 -3.924096 251.541392 -4.28303 252.714122 -4.285983 C 254.442191 -4.28506 255.519307 -3.55326 255.938196 -2.095716 C 256.375828 -0.655465 255.885438 1.509789 254.47216 4.392768 C 253.798609 5.881588 253.421775 7.008653 253.345594 7.774561 C 253.285163 8.542865 253.690068 8.926712 254.564245 8.926701 L 259.366612 8.923777 C 259.982807 8.924822 260.379928 9.359856 260.561313 10.233414 C 260.741156 11.090623 260.724402 12.075048 260.514989 13.187287 C 260.304033 14.283177 259.904842 15.265846 259.320755 16.13983 C 258.735725 16.993529 257.973724 17.4215 257.042626 17.42494 C 254.219033 17.422597 252.131138 17.536154 250.775602 17.761074 C 249.426398 17.970843 248.470794 18.506342 247.913924 19.360294 C 247.356455 20.218184 246.772521 21.700489 246.154845 23.802074 C 245.164525 27.003162 245.299788 29.557631 246.560634 31.46548 C 247.823276 33.361518 249.814908 34.304893 252.533734 34.307419 C 254.382918 34.306617 256.029113 33.892244 257.471718 33.068238 C 258.914922 32.240295 260.092067 31.12213 261.012224 29.707065 C 261.506623 28.972524 262.13871 28.710107 262.904547 28.919216 C 263.686134 29.13072 264.332419 29.543215 264.842801 30.160638 C 265.369532 30.776518 265.481728 31.389791 265.18213 32.008929 C 264.623484 33.060006 263.879313 34.509888 262.949617 36.358576 C 262.034128 38.19331 260.929065 40.188554 259.637167 42.352783 C 258.343128 44.504601 256.83449 46.531132 255.106118 48.439652 C 253.389558 50.349969 251.438945 51.918532 249.245207 53.152019 C 247.063879 54.383365 244.653776 54.999825 242.007021 55.000201 Z M 242.007021 55.000201 " stroke="#f0dfc8" stroke-width="6.925335" stroke-opacity="1" stroke-miterlimit="4"/><path stroke-linecap="butt" transform="matrix(0.969664, -0.147449, 0.147449, 0.969664, 29.806912, 155.015951)" fill="none" stroke-linejoin="miter" d="M 137.804671 58.326465 C 139.218436 58.327936 140.172509 58.650266 140.670825 59.294053 C 141.164606 59.94118 141.41242 60.881237 141.414267 62.114227 C 141.412299 64.45849 140.856606 66.682298 139.743252 68.78505 C 138.631694 70.87599 136.989235 72.563924 134.806801 73.855528 C 132.628305 75.147731 129.967841 75.794605 126.829346 75.796747 C 124.666457 75.79416 122.778386 75.547341 121.169667 75.052953 C 119.577298 74.557022 118.030543 73.999543 116.528805 73.384455 C 115.023129 72.768767 113.362534 72.218149 111.546422 71.736536 C 109.728168 71.242513 107.493696 70.99539 104.850878 70.996365 C 102.143865 70.995635 99.58967 71.28805 97.188294 71.873609 C 94.780839 72.446159 92.859341 73.346397 91.415325 74.577062 C 89.974647 75.812264 89.252234 77.410479 89.250824 79.380181 C 89.252671 80.613171 89.590883 81.647544 90.264262 82.491175 C 90.944573 83.315718 91.767695 83.730932 92.74664 83.730739 C 93.182253 84.707411 93.210972 85.896145 92.837334 87.293602 C 92.474564 88.67257 91.75349 89.997054 90.671371 91.25858 C 89.589252 92.520105 88.199142 93.581716 86.50164 94.439474 C 84.816548 95.295091 82.874541 95.720881 80.662607 95.722921 C 78.140906 95.722171 76.011505 95.128464 74.282279 93.942998 C 72.556047 92.737846 71.261855 91.155259 70.405436 89.184025 C 69.550814 87.200979 69.124152 85.105757 69.121512 82.89776 C 69.122059 78.522937 70.564227 74.49624 73.448616 70.813732 C 76.351149 67.117868 80.611208 64.164217 86.23213 61.957315 C 91.867859 59.732522 98.72035 58.619297 106.789605 58.61764 C 109.673457 58.62109 112.118043 58.678598 114.113694 58.800779 C 116.130228 58.918078 118.023851 59.048916 119.796357 59.181478 C 121.582472 59.304025 123.523506 59.361502 125.609788 59.364526 C 128.945407 59.364159 131.517676 59.191318 133.318718 58.844805 C 135.140046 58.497348 136.632539 58.325481 137.804671 58.326465 Z M 122.770262 92.767767 C 124.603098 92.768507 125.814554 93.093719 126.40129 93.738866 C 126.988025 94.384013 127.278024 95.205604 127.280359 96.196959 C 127.280045 97.232225 126.95465 98.338913 126.30931 99.509746 C 125.66397 100.680579 124.648331 101.690364 123.267526 102.531824 C 121.885179 103.356937 120.118468 103.769097 117.971328 103.768905 C 116.480956 103.76787 115.093464 103.726081 113.798237 103.633867 C 112.508744 103.530439 111.24527 103.414854 110.014493 103.296184 C 109.590501 104.468448 109.148364 105.654067 108.683546 106.856379 C 108.218729 108.058691 107.73602 109.246197 107.239359 110.419496 C 103.738776 118.790085 99.569716 124.960198 94.728838 128.925298 C 89.90371 132.892793 84.602458 134.878398 78.81387 134.876381 C 74.563502 134.878645 71.114215 134.116462 68.46815 132.602243 C 65.824825 131.096497 63.900789 129.152257 62.697238 126.761648 C 61.495483 124.359226 60.895281 121.895197 60.892692 119.368959 C 60.894041 116.843321 61.405803 114.431553 62.427977 112.133655 C 63.43286 109.817014 64.862425 107.939597 66.709396 106.49627 C 68.558164 105.041131 70.715837 104.309746 73.181217 104.309988 C 74.095367 104.312028 74.55505 104.680034 74.55573 105.417345 C 74.555355 107.459717 75.351566 109.111604 76.944362 110.373007 C 78.552908 111.636805 80.684795 112.267146 83.347299 112.269165 C 85.736072 112.269844 88.371349 111.417717 91.259807 109.721858 C 94.156739 108.023258 96.751749 105.263576 99.035762 101.449489 C 98.598111 101.386968 98.162001 101.340795 97.727435 101.31097 C 97.30468 101.282941 96.880129 101.266725 96.440773 101.268399 C 95.3289 101.268522 94.528042 100.945319 94.030324 100.297594 C 93.548356 99.652264 93.308944 98.842395 93.308751 97.86345 C 93.310912 96.498131 93.736193 95.370376 94.592469 94.481383 C 95.464495 93.594784 96.856898 93.153905 98.762404 93.15361 L 102.642148 93.151387 C 103.438367 90.988325 104.21764 88.830743 104.987242 86.683776 C 105.752906 84.536211 106.533305 82.503683 107.33058 80.598603 C 107.946085 78.988159 108.764072 77.847608 109.78574 77.169073 C 110.810746 76.495075 111.994395 76.155391 113.347902 76.155756 C 115.377863 76.158272 116.715498 76.607411 117.360209 77.50711 C 118.006717 78.394997 118.08029 79.606665 117.585465 81.138776 C 116.969585 83.228549 116.337519 85.23932 115.692007 87.179563 C 115.046495 89.119805 114.38369 91.041304 113.71087 92.949195 C 115.67774 92.889748 117.428743 92.845816 118.96054 92.812866 C 120.507487 92.786247 121.778907 92.770101 122.770262 92.767767 Z M 136.974254 130.998466 C 133.831822 131.00001 131.458057 129.708477 129.849024 127.123271 C 128.256339 124.536522 127.460199 121.188664 127.4624 117.067886 C 127.462713 114.469577 127.78553 111.71083 128.43025 108.79558 C 129.077365 105.86458 130.030401 102.988157 131.293895 100.16297 C 132.557388 97.337783 134.140776 94.766691 136.051335 92.45483 C 137.958555 90.138432 140.173025 88.291743 142.699881 86.907487 C 145.2222 85.52657 148.086974 84.834224 151.289665 84.833786 C 153.134313 84.836323 154.562306 85.009152 155.569706 85.351677 C 156.590714 85.684185 157.365989 86.096152 157.890396 86.594854 C 158.419339 87.090217 158.863364 87.508212 159.221273 87.856714 C 159.597926 88.187923 160.09268 88.351782 160.708875 88.352828 C 161.748678 88.349803 162.586616 88.058262 163.235701 87.472125 C 163.880848 86.885389 164.602004 86.302154 165.400365 85.714545 C 166.210539 85.128733 167.322808 84.834593 168.736573 84.836064 C 169.965625 84.833618 170.816725 85.144319 171.283198 85.759093 C 171.74967 86.373867 171.980953 87.2107 171.982181 88.262314 C 171.979715 89.974034 171.498519 91.681442 170.53979 93.376661 C 169.592274 95.077615 168.592942 97.278275 167.541197 99.982579 C 166.00797 103.362961 165.437767 105.947123 165.826049 107.738403 C 166.231278 109.524203 167.448873 110.418361 169.478834 110.420877 C 171.070037 110.421131 172.454312 110.007215 173.627722 109.178531 C 174.798991 108.337435 175.849195 107.179825 176.781671 105.710236 C 177.264258 104.973898 177.884533 104.709685 178.654308 104.919393 C 179.435895 105.130897 180.082179 105.543392 180.592561 106.160815 C 181.119292 106.776695 181.231488 107.389968 180.927952 108.008507 C 179.815887 110.155769 178.630665 112.545699 177.368349 115.177698 C 176.105089 117.789412 174.700245 120.299027 173.153816 122.706544 C 171.618255 125.095571 169.870632 127.077704 167.902473 128.655685 C 165.932772 130.217317 163.654673 130.998874 161.072115 131.000955 C 157.869424 131.001393 155.608901 129.706938 154.28601 127.120929 C 152.96252 124.538858 152.579047 121.338349 153.135592 117.519402 L 152.77678 117.521239 C 150.928692 121.276731 148.643582 124.462212 145.921449 127.077681 C 143.219602 129.692207 140.233266 130.998536 136.974254 130.998466 Z M 146.217136 111.887013 C 147.808938 111.883329 149.207674 111.427299 150.406667 110.509851 C 151.611993 109.577251 152.548701 108.450724 153.225266 107.127529 C 153.901831 105.804334 154.241413 104.498381 154.240672 103.205133 C 154.239819 101.674189 153.805038 100.480108 152.932393 99.622289 C 152.077893 98.751116 150.911363 98.31591 149.441276 98.313932 C 147.846136 98.31308 146.462206 98.751219 145.290683 99.620475 C 144.120957 100.477919 143.209923 101.568065 142.565455 102.892112 C 141.91765 104.211623 141.592966 105.55207 141.593199 106.901639 C 141.593454 108.43652 142.008892 109.651832 142.834379 110.554849 C 143.674672 111.439976 144.803371 111.885542 146.217136 111.887013 Z M 212.58296 105.707759 C 213.081296 104.973816 213.713982 104.707462 214.47922 104.920509 C 215.260807 105.132012 215.907091 105.544507 216.418073 106.157993 C 216.944804 106.773873 217.056401 107.391083 216.753464 108.005685 C 216.259014 109.058467 215.528198 110.526494 214.570088 112.403088 C 213.619852 114.28088 212.425771 116.278702 210.983308 118.399894 C 209.541443 120.517148 207.785093 122.530182 205.709721 124.442335 C 203.651296 126.349009 201.284007 127.902553 198.607255 129.106905 C 195.93504 130.307919 192.866627 130.908873 189.413829 130.911563 C 185.353309 130.910468 182.139739 130.055218 179.765843 128.340678 C 177.406154 126.612184 175.789032 124.424565 174.917818 121.782357 C 174.061409 119.122258 173.822809 116.346624 174.196883 113.462732 C 174.557602 110.560695 175.413948 107.975731 176.765922 105.707841 L 177.149495 105.145785 C 178.802853 102.935809 180.438899 100.521777 182.064908 97.908825 C 183.703329 95.293732 185.383193 92.829965 187.112976 90.514785 C 188.842759 88.199605 190.623515 86.290993 192.455244 84.78895 C 194.303322 83.285365 196.213882 82.536545 198.179646 82.537356 C 201.080445 82.535326 203.221496 83.211373 204.606735 84.566097 C 205.988636 85.916285 206.64787 87.329806 206.588971 88.803323 C 206.589651 89.540634 206.266428 90.15618 205.619302 90.649961 C 204.971577 91.147678 204.198109 91.598076 203.298298 92.005092 C 202.409356 92.393617 201.6299 92.883389 200.952655 93.469273 C 200.27541 94.055156 199.939705 94.805772 199.937066 95.723859 C 199.937127 96.279796 200.368133 97.392734 201.222806 99.05754 C 202.095025 100.712928 203.020592 102.573823 203.998309 104.648099 C 204.986297 106.707824 205.671357 108.693285 206.046213 110.599349 C 207.461085 110.540561 208.671424 110.051855 209.67723 109.133229 C 210.696644 108.204588 211.668445 107.059226 212.58296 105.707759 Z M 186.09923 111.884688 C 188.125852 111.882667 189.698068 111.239509 190.8092 109.946139 C 191.920332 108.652768 192.477719 107.05363 192.478023 105.144187 C 192.477901 104.032314 192.303933 102.898034 191.960059 101.741946 C 191.614642 100.56951 191.104452 99.36799 190.426151 98.132849 C 189.811447 96.903351 189.074135 96.904031 188.218154 98.135488 C 187.045099 99.862573 185.79698 101.606442 184.474395 103.363159 C 183.153606 105.108063 181.971458 106.656512 180.936426 108.005767 C 180.935949 109.121578 181.408104 110.043379 182.355631 110.779645 C 183.318908 111.518306 184.564349 111.884942 186.09923 111.884688 Z M 219.710713 130.998624 C 216.253977 131.000715 213.708022 129.940821 212.068312 127.822279 C 210.447344 125.686445 209.635861 122.916352 209.635058 119.504126 C 209.634255 116.091899 210.30945 112.419905 211.661839 108.480267 C 212.473189 106.138226 213.369001 103.611633 214.344139 100.907765 C 215.338021 98.186606 216.412336 95.227912 217.568281 92.02381 C 216.218113 92.027981 215.188286 91.67399 214.482139 90.966372 C 213.775992 90.258754 213.309154 89.434444 213.082823 88.485567 C 212.874637 87.523336 212.872577 86.689132 213.084517 85.984152 C 213.308869 85.277031 213.700682 84.925708 214.256618 84.925647 C 216.959694 84.925778 219.080388 84.172656 220.614162 82.669618 C 222.162144 81.152627 223.240975 79.568325 223.859128 77.913971 C 224.971133 75.210773 226.044301 73.504756 227.082571 72.796518 C 228.134449 72.078264 229.245084 71.715393 230.417216 71.716377 C 232.145284 71.7173 233.219062 72.444564 233.641888 73.902707 C 234.074984 75.346297 233.58913 77.508211 232.175254 80.395128 C 231.497765 81.88335 231.124868 83.011013 231.048687 83.776921 C 230.988855 84.541287 231.393759 84.925134 232.267936 84.925124 L 237.065768 84.925539 C 237.681963 84.926584 238.083021 85.362216 238.261068 86.231238 C 238.44091 87.088447 238.428094 88.073471 238.21868 89.185709 C 238.007725 90.281599 237.607935 91.268206 237.024447 92.138253 C 236.43488 92.995291 235.676817 93.42386 234.746318 93.423363 C 231.922126 93.424957 229.830892 93.533978 228.479294 93.759496 C 227.125554 93.972604 226.174486 94.504764 225.617017 95.362654 C 225.060147 96.216607 224.476213 97.698911 223.857938 99.804434 C 222.867618 103.005522 223.002881 105.559991 224.263727 107.46784 C 225.526968 109.35994 227.518001 110.307253 230.237425 110.305842 C 232.08661 110.30504 233.732206 109.894604 235.17541 109.066661 C 236.618015 108.242655 237.795759 107.120552 238.71138 105.708826 C 239.210315 104.970947 239.838464 104.707931 240.60764 104.921576 C 241.389826 105.129143 242.03611 105.541638 242.546493 106.159061 C 243.069286 106.774342 243.184821 107.392151 242.881884 108.006753 C 242.327176 109.058429 241.583005 110.508311 240.653309 112.356998 C 239.733882 114.191134 238.632158 116.190914 237.336323 118.354545 C 236.04682 120.503024 234.533646 122.532893 232.805274 124.441414 C 231.09325 126.348391 229.142038 127.920892 226.944961 129.149843 C 224.766972 130.385725 222.356869 131.002185 219.710713 130.998624 Z M 219.710713 130.998624 " stroke="#f0dfc8" stroke-width="6.925335" stroke-opacity="1" stroke-miterlimit="4"/><g fill="#303030" fill-opacity="1"><g transform="translate(79.824235, 201.974911)"><g><path d="M 15.421875 6.171875 C 11.359375 6.796875 7.703125 6.570312 4.453125 5.5 C 1.210938 4.4375 -1.40625 2.757812 -3.40625 0.46875 C -5.40625 -1.8125 -6.644531 -4.507812 -7.125 -7.625 C -7.476562 -9.945312 -7.378906 -12.140625 -6.828125 -14.203125 C -6.285156 -16.273438 -5.359375 -18.003906 -4.046875 -19.390625 C -2.734375 -20.773438 -1.085938 -21.617188 0.890625 -21.921875 C 1.785156 -22.054688 2.285156 -21.769531 2.390625 -21.0625 C 2.734375 -18.800781 3.664062 -16.882812 5.1875 -15.3125 C 6.707031 -13.738281 8.613281 -12.632812 10.90625 -12 C 13.195312 -11.375 15.660156 -11.265625 18.296875 -11.671875 C 21.578125 -12.171875 24.21875 -13.363281 26.21875 -15.25 C 28.21875 -17.144531 29.664062 -19.5625 30.5625 -22.5 C 30.757812 -23.144531 30.648438 -23.632812 30.234375 -23.96875 C 29.828125 -24.3125 29.445312 -24.207031 29.09375 -23.65625 C 28.09375 -21.800781 26.828125 -20.28125 25.296875 -19.09375 C 23.773438 -17.914062 21.96875 -17.164062 19.875 -16.84375 C 16.351562 -16.3125 13.179688 -17.375 10.359375 -20.03125 C 7.546875 -22.6875 5.710938 -26.847656 4.859375 -32.515625 C 4.140625 -37.234375 4.332031 -41.863281 5.4375 -46.40625 C 6.550781 -50.945312 8.390625 -55.117188 10.953125 -58.921875 C 13.523438 -62.722656 16.648438 -65.894531 20.328125 -68.4375 C 24.003906 -70.988281 28.019531 -72.597656 32.375 -73.265625 C 37.144531 -73.992188 40.921875 -73.34375 43.703125 -71.3125 C 46.484375 -69.289062 48.15625 -66.429688 48.71875 -62.734375 C 49.132812 -59.984375 48.847656 -57.539062 47.859375 -55.40625 C 46.878906 -53.28125 45.472656 -51.570312 43.640625 -50.28125 C 41.816406 -49 39.804688 -48.191406 37.609375 -47.859375 C 36.710938 -47.722656 35.835938 -47.832031 34.984375 -48.1875 C 34.128906 -48.550781 33.828125 -49.144531 34.078125 -49.96875 C 34.628906 -51.957031 34.492188 -53.738281 33.671875 -55.3125 C 32.847656 -56.894531 31.21875 -57.5 28.78125 -57.125 C 26.6875 -56.8125 24.898438 -55.976562 23.421875 -54.625 C 21.953125 -53.269531 20.867188 -51.65625 20.171875 -49.78125 C 19.484375 -47.90625 19.285156 -46.007812 19.578125 -44.09375 C 19.960938 -41.53125 21.0625 -39.515625 22.875 -38.046875 C 24.695312 -36.585938 27.007812 -36.070312 29.8125 -36.5 C 31.363281 -36.738281 32.859375 -37.238281 34.296875 -38 C 35.734375 -38.769531 36.941406 -39.929688 37.921875 -41.484375 C 38.578125 -42.441406 39.34375 -42.957031 40.21875 -43.03125 C 41.09375 -43.101562 41.875 -42.882812 42.5625 -42.375 C 43.25 -41.875 43.5625 -41.191406 43.5 -40.328125 C 43.207031 -36.679688 42.800781 -33.351562 42.28125 -30.34375 C 41.757812 -27.332031 41.191406 -24.070312 40.578125 -20.5625 C 39.804688 -15.976562 38.285156 -11.789062 36.015625 -8 C 33.753906 -4.207031 30.875 -1.066406 27.375 1.421875 C 23.875 3.910156 19.890625 5.492188 15.421875 6.171875 Z M 15.421875 6.171875 "/></g></g></g><g fill="#303030" fill-opacity="1"><g transform="translate(129.33276, 194.446569)"><g><path d="M 16.84375 -2.5625 C 13.257812 -2.019531 10.195312 -2.375 7.65625 -3.625 C 5.113281 -4.882812 3.082031 -6.757812 1.5625 -9.25 C 0.0507812 -11.75 -0.925781 -14.597656 -1.375 -17.796875 C -1.832031 -20.992188 -1.765625 -24.265625 -1.171875 -27.609375 C -0.578125 -30.960938 0.523438 -34.125 2.140625 -37.09375 C 3.765625 -40.070312 5.898438 -42.582031 8.546875 -44.625 C 11.203125 -46.675781 14.347656 -47.976562 17.984375 -48.53125 C 20.796875 -48.957031 23.160156 -48.78125 25.078125 -48 C 27.003906 -47.226562 28.515625 -46.039062 29.609375 -44.4375 C 30.703125 -42.832031 31.398438 -41.046875 31.703125 -39.078125 C 32.035156 -36.929688 31.765625 -34.691406 30.890625 -32.359375 C 30.023438 -30.023438 28.625 -27.992188 26.6875 -26.265625 C 24.75 -24.546875 22.320312 -23.460938 19.40625 -23.015625 C 18.144531 -22.816406 16.90625 -22.71875 15.6875 -22.71875 C 14.46875 -22.71875 13.304688 -22.941406 12.203125 -23.390625 C 11.878906 -23.515625 11.546875 -23.472656 11.203125 -23.265625 C 10.867188 -23.066406 10.75 -22.671875 10.84375 -22.078125 C 11.070312 -20.523438 12.160156 -19.484375 14.109375 -18.953125 C 16.054688 -18.421875 18.3125 -18.351562 20.875 -18.75 C 23.925781 -19.207031 26.957031 -20.457031 29.96875 -22.5 C 32.988281 -24.550781 35.273438 -27.285156 36.828125 -30.703125 C 37.203125 -31.492188 37.789062 -31.84375 38.59375 -31.75 C 39.40625 -31.65625 40.109375 -31.347656 40.703125 -30.828125 C 41.296875 -30.304688 41.457031 -29.722656 41.1875 -29.078125 C 38.363281 -21.191406 34.894531 -15 30.78125 -10.5 C 26.675781 -6 22.03125 -3.351562 16.84375 -2.5625 Z M 16.046875 -29.375 C 17.773438 -29.632812 19.050781 -30.390625 19.875 -31.640625 C 20.695312 -32.890625 21.019531 -34.085938 20.84375 -35.234375 C 20.6875 -36.242188 20.207031 -37.050781 19.40625 -37.65625 C 18.613281 -38.269531 17.53125 -38.472656 16.15625 -38.265625 C 14.425781 -38.003906 13.132812 -37.257812 12.28125 -36.03125 C 11.4375 -34.8125 11.101562 -33.601562 11.28125 -32.40625 C 11.425781 -31.445312 11.898438 -30.644531 12.703125 -30 C 13.503906 -29.363281 14.617188 -29.15625 16.046875 -29.375 Z M 16.046875 -29.375 "/></g></g></g><g fill="#303030" fill-opacity="1"><g transform="translate(167.829441, 188.592704)"><g><path d="M 9.03125 -1.375 C 5.695312 -0.863281 3.082031 -1.515625 1.1875 -3.328125 C -0.695312 -5.148438 -1.890625 -7.71875 -2.390625 -11.03125 C -2.898438 -14.34375 -2.796875 -18.007812 -2.078125 -22.03125 C -1.648438 -24.40625 -1.15625 -26.984375 -0.59375 -29.765625 C -0.03125 -32.546875 0.578125 -35.570312 1.234375 -38.84375 C -0.078125 -38.644531 -1.128906 -38.835938 -1.921875 -39.421875 C -2.710938 -40.003906 -3.28125 -40.742188 -3.625 -41.640625 C -3.976562 -42.535156 -4.101562 -43.335938 -4 -44.046875 C -3.894531 -44.765625 -3.578125 -45.164062 -3.046875 -45.25 C -0.421875 -45.644531 1.523438 -46.6875 2.796875 -48.375 C 4.078125 -50.0625 4.890625 -51.757812 5.234375 -53.46875 C 5.921875 -56.257812 6.71875 -58.078125 7.625 -58.921875 C 8.539062 -59.765625 9.566406 -60.269531 10.703125 -60.4375 C 12.367188 -60.6875 13.515625 -60.144531 14.140625 -58.8125 C 14.773438 -57.476562 14.617188 -55.300781 13.671875 -52.28125 C 13.222656 -50.738281 13.023438 -49.585938 13.078125 -48.828125 C 13.140625 -48.078125 13.585938 -47.769531 14.421875 -47.90625 L 19.078125 -48.609375 C 19.671875 -48.703125 20.125 -48.34375 20.4375 -47.53125 C 20.75 -46.726562 20.878906 -45.769531 20.828125 -44.65625 C 20.773438 -43.550781 20.53125 -42.535156 20.09375 -41.609375 C 19.65625 -40.691406 18.988281 -40.164062 18.09375 -40.03125 C 15.351562 -39.613281 13.34375 -39.203125 12.0625 -38.796875 C 10.789062 -38.390625 9.945312 -37.722656 9.53125 -36.796875 C 9.113281 -35.878906 8.757812 -34.363281 8.46875 -32.25 C 7.976562 -29 8.488281 -26.539062 10 -24.875 C 11.507812 -23.207031 13.578125 -22.570312 16.203125 -22.96875 C 17.992188 -23.238281 19.523438 -23.882812 20.796875 -24.90625 C 22.078125 -25.925781 23.0625 -27.191406 23.75 -28.703125 C 24.125 -29.503906 24.703125 -29.851562 25.484375 -29.75 C 26.265625 -29.65625 26.945312 -29.347656 27.53125 -28.828125 C 28.125 -28.304688 28.320312 -27.726562 28.125 -27.09375 C 27.738281 -26 27.234375 -24.488281 26.609375 -22.5625 C 25.984375 -20.632812 25.203125 -18.523438 24.265625 -16.234375 C 23.335938 -13.953125 22.175781 -11.757812 20.78125 -9.65625 C 19.394531 -7.550781 17.734375 -5.742188 15.796875 -4.234375 C 13.867188 -2.722656 11.613281 -1.769531 9.03125 -1.375 Z M 9.03125 -1.375 "/></g></g></g><g fill="#303030" fill-opacity="1"><g transform="translate(193.255163, 184.726429)"><g/></g></g><g fill="#303030" fill-opacity="1"><g transform="translate(225.484954, 179.825518)"><g><path d="M 16.109375 -1.34375 C 13.179688 -0.894531 10.65625 -1.320312 8.53125 -2.625 C 6.414062 -3.925781 5.164062 -5.859375 4.78125 -8.421875 C 4.488281 -10.328125 4.742188 -12.117188 5.546875 -13.796875 C 6.347656 -15.484375 7.460938 -17.257812 8.890625 -19.125 C 10.328125 -20.988281 11.859375 -23.175781 13.484375 -25.6875 C 15.523438 -28.800781 17.191406 -31.9375 18.484375 -35.09375 C 19.773438 -38.257812 20.910156 -41.640625 21.890625 -45.234375 C 22.867188 -48.828125 23.875 -52.847656 24.90625 -57.296875 C 22.1875 -57.484375 19.738281 -57.195312 17.5625 -56.4375 C 15.394531 -55.6875 13.722656 -54.5625 12.546875 -53.0625 C 11.367188 -51.570312 10.9375 -49.8125 11.25 -47.78125 C 11.445312 -46.46875 11.9375 -45.425781 12.71875 -44.65625 C 13.5 -43.894531 14.367188 -43.585938 15.328125 -43.734375 C 15.898438 -42.835938 16.109375 -41.691406 15.953125 -40.296875 C 15.796875 -38.898438 15.285156 -37.507812 14.421875 -36.125 C 13.566406 -34.75 12.378906 -33.515625 10.859375 -32.421875 C 9.335938 -31.335938 7.507812 -30.632812 5.375 -30.3125 C 2.925781 -29.9375 0.785156 -30.175781 -1.046875 -31.03125 C -2.890625 -31.882812 -4.363281 -33.125 -5.46875 -34.75 C -6.570312 -36.382812 -7.28125 -38.21875 -7.59375 -40.25 C -8.3125 -44.96875 -7.660156 -49.507812 -5.640625 -53.875 C -3.617188 -58.25 -0.351562 -62 4.15625 -65.125 C 8.664062 -68.25 14.226562 -70.3125 20.84375 -71.3125 C 25.207031 -71.976562 28.441406 -71.890625 30.546875 -71.046875 C 32.660156 -70.210938 34.003906 -68.738281 34.578125 -66.625 C 35.148438 -64.519531 35.269531 -61.882812 34.9375 -58.71875 C 34.695312 -55.9375 34.375 -52.742188 33.96875 -49.140625 C 33.570312 -45.535156 33.117188 -41.796875 32.609375 -37.921875 C 32.097656 -34.054688 31.582031 -30.332031 31.0625 -26.75 C 30.539062 -23.164062 30.023438 -20.019531 29.515625 -17.3125 C 28.742188 -12.6875 27.195312 -9.003906 24.875 -6.265625 C 22.550781 -3.523438 19.628906 -1.882812 16.109375 -1.34375 Z M 16.109375 -1.34375 "/></g></g></g><g fill="#303030" fill-opacity="1"><g transform="translate(263.534, 174.039721)"><g><path d="M 9.03125 -1.375 C 5.695312 -0.863281 3.082031 -1.515625 1.1875 -3.328125 C -0.695312 -5.148438 -1.890625 -7.71875 -2.390625 -11.03125 C -2.898438 -14.34375 -2.796875 -18.007812 -2.078125 -22.03125 C -1.648438 -24.40625 -1.15625 -26.984375 -0.59375 -29.765625 C -0.03125 -32.546875 0.578125 -35.570312 1.234375 -38.84375 C -0.078125 -38.644531 -1.128906 -38.835938 -1.921875 -39.421875 C -2.710938 -40.003906 -3.28125 -40.742188 -3.625 -41.640625 C -3.976562 -42.535156 -4.101562 -43.335938 -4 -44.046875 C -3.894531 -44.765625 -3.578125 -45.164062 -3.046875 -45.25 C -0.421875 -45.644531 1.523438 -46.6875 2.796875 -48.375 C 4.078125 -50.0625 4.890625 -51.757812 5.234375 -53.46875 C 5.921875 -56.257812 6.71875 -58.078125 7.625 -58.921875 C 8.539062 -59.765625 9.566406 -60.269531 10.703125 -60.4375 C 12.367188 -60.6875 13.515625 -60.144531 14.140625 -58.8125 C 14.773438 -57.476562 14.617188 -55.300781 13.671875 -52.28125 C 13.222656 -50.738281 13.023438 -49.585938 13.078125 -48.828125 C 13.140625 -48.078125 13.585938 -47.769531 14.421875 -47.90625 L 19.078125 -48.609375 C 19.671875 -48.703125 20.125 -48.34375 20.4375 -47.53125 C 20.75 -46.726562 20.878906 -45.769531 20.828125 -44.65625 C 20.773438 -43.550781 20.53125 -42.535156 20.09375 -41.609375 C 19.65625 -40.691406 18.988281 -40.164062 18.09375 -40.03125 C 15.351562 -39.613281 13.34375 -39.203125 12.0625 -38.796875 C 10.789062 -38.390625 9.945312 -37.722656 9.53125 -36.796875 C 9.113281 -35.878906 8.757812 -34.363281 8.46875 -32.25 C 7.976562 -29 8.488281 -26.539062 10 -24.875 C 11.507812 -23.207031 13.578125 -22.570312 16.203125 -22.96875 C 17.992188 -23.238281 19.523438 -23.882812 20.796875 -24.90625 C 22.078125 -25.925781 23.0625 -27.191406 23.75 -28.703125 C 24.125 -29.503906 24.703125 -29.851562 25.484375 -29.75 C 26.265625 -29.65625 26.945312 -29.347656 27.53125 -28.828125 C 28.125 -28.304688 28.320312 -27.726562 28.125 -27.09375 C 27.738281 -26 27.234375 -24.488281 26.609375 -22.5625 C 25.984375 -20.632812 25.203125 -18.523438 24.265625 -16.234375 C 23.335938 -13.953125 22.175781 -11.757812 20.78125 -9.65625 C 19.394531 -7.550781 17.734375 -5.742188 15.796875 -4.234375 C 13.867188 -2.722656 11.613281 -1.769531 9.03125 -1.375 Z M 9.03125 -1.375 "/></g></g></g><g fill="#303030" fill-opacity="1"><g transform="translate(112.650795, 272.381709)"><g><path d="M 59.375 -81.109375 C 60.757812 -81.316406 61.738281 -81.144531 62.3125 -80.59375 C 62.882812 -80.050781 63.257812 -79.179688 63.4375 -77.984375 C 63.78125 -75.710938 63.566406 -73.476562 62.796875 -71.28125 C 62.035156 -69.09375 60.691406 -67.210938 58.765625 -65.640625 C 56.835938 -64.066406 54.351562 -63.050781 51.3125 -62.59375 C 49.226562 -62.269531 47.367188 -62.226562 45.734375 -62.46875 C 44.109375 -62.71875 42.519531 -63.023438 40.96875 -63.390625 C 39.414062 -63.765625 37.722656 -64.054688 35.890625 -64.265625 C 34.054688 -64.472656 31.859375 -64.378906 29.296875 -63.984375 C 26.671875 -63.585938 24.234375 -62.925781 21.984375 -62 C 19.742188 -61.082031 18.015625 -59.921875 16.796875 -58.515625 C 15.578125 -57.109375 15.113281 -55.453125 15.40625 -53.546875 C 15.582031 -52.347656 16.0625 -51.394531 16.84375 -50.6875 C 17.625 -49.988281 18.492188 -49.710938 19.453125 -49.859375 C 20.003906 -48.960938 20.203125 -47.816406 20.046875 -46.421875 C 19.898438 -45.023438 19.394531 -43.632812 18.53125 -42.25 C 17.675781 -40.863281 16.488281 -39.628906 14.96875 -38.546875 C 13.457031 -37.460938 11.628906 -36.757812 9.484375 -36.4375 C 7.035156 -36.0625 4.882812 -36.328125 3.03125 -37.234375 C 1.1875 -38.140625 -0.296875 -39.484375 -1.421875 -41.265625 C -2.554688 -43.054688 -3.285156 -45.03125 -3.609375 -47.1875 C -4.253906 -51.414062 -3.441406 -55.535156 -1.171875 -59.546875 C 1.085938 -63.554688 4.785156 -67.046875 9.921875 -70.015625 C 15.054688 -72.992188 21.535156 -75.082031 29.359375 -76.28125 C 32.148438 -76.695312 34.523438 -76.992188 36.484375 -77.171875 C 38.441406 -77.359375 40.296875 -77.523438 42.046875 -77.671875 C 43.796875 -77.816406 45.6875 -78.039062 47.71875 -78.34375 C 50.945312 -78.832031 53.414062 -79.375 55.125 -79.96875 C 56.832031 -80.5625 58.25 -80.941406 59.375 -81.109375 Z M 49.875 -45.515625 C 51.65625 -45.785156 52.878906 -45.648438 53.546875 -45.109375 C 54.222656 -44.566406 54.632812 -43.816406 54.78125 -42.859375 C 54.925781 -41.847656 54.769531 -40.726562 54.3125 -39.5 C 53.851562 -38.269531 53.015625 -37.148438 51.796875 -36.140625 C 50.578125 -35.128906 48.925781 -34.46875 46.84375 -34.15625 C 45.40625 -33.9375 44.050781 -33.769531 42.78125 -33.65625 C 41.519531 -33.550781 40.285156 -33.472656 39.078125 -33.421875 C 38.828125 -32.222656 38.566406 -31.007812 38.296875 -29.78125 C 38.023438 -28.550781 37.738281 -27.332031 37.4375 -26.125 C 35.257812 -17.476562 32.117188 -10.875 28.015625 -6.3125 C 23.921875 -1.757812 19.078125 0.9375 13.484375 1.78125 C 9.359375 2.414062 5.898438 2.195312 3.109375 1.125 C 0.316406 0.0507812 -1.835938 -1.554688 -3.359375 -3.703125 C -4.878906 -5.847656 -5.828125 -8.144531 -6.203125 -10.59375 C -6.578125 -13.039062 -6.441406 -15.457031 -5.796875 -17.84375 C -5.148438 -20.238281 -4.035156 -22.269531 -2.453125 -23.9375 C -0.878906 -25.613281 1.101562 -26.632812 3.5 -27 C 4.394531 -27.132812 4.898438 -26.84375 5.015625 -26.125 C 5.304688 -24.15625 6.316406 -22.679688 8.046875 -21.703125 C 9.785156 -20.722656 11.941406 -20.425781 14.515625 -20.8125 C 16.847656 -21.164062 19.289062 -22.375 21.84375 -24.4375 C 24.394531 -26.5 26.492188 -29.550781 28.140625 -33.59375 C 27.710938 -33.59375 27.285156 -33.570312 26.859375 -33.53125 C 26.429688 -33.5 26.015625 -33.453125 25.609375 -33.390625 C 24.523438 -33.222656 23.695312 -33.414062 23.125 -33.96875 C 22.5625 -34.519531 22.207031 -35.273438 22.0625 -36.234375 C 21.863281 -37.546875 22.113281 -38.695312 22.8125 -39.6875 C 23.519531 -40.6875 24.800781 -41.328125 26.65625 -41.609375 L 30.421875 -42.171875 C 30.867188 -44.390625 31.304688 -46.597656 31.734375 -48.796875 C 32.160156 -50.992188 32.625 -53.082031 33.125 -55.0625 C 33.488281 -56.6875 34.109375 -57.90625 34.984375 -58.71875 C 35.867188 -59.53125 36.96875 -60.035156 38.28125 -60.234375 C 40.257812 -60.535156 41.625 -60.300781 42.375 -59.53125 C 43.132812 -58.757812 43.390625 -57.585938 43.140625 -56.015625 C 42.847656 -53.910156 42.53125 -51.867188 42.1875 -49.890625 C 41.851562 -47.910156 41.503906 -45.945312 41.140625 -44 C 43.023438 -44.351562 44.710938 -44.65625 46.203125 -44.90625 C 47.691406 -45.164062 48.914062 -45.367188 49.875 -45.515625 Z M 49.875 -45.515625 "/></g></g></g><g fill="#303030" fill-opacity="1"><g transform="translate(172.454954, 263.287796)"><g><path d="M 9.484375 -1.4375 C 6.441406 -0.976562 3.953125 -1.882812 2.015625 -4.15625 C 0.0859375 -6.425781 -1.179688 -9.5625 -1.796875 -13.5625 C -2.171875 -16.070312 -2.257812 -18.789062 -2.0625 -21.71875 C -1.875 -24.644531 -1.375 -27.570312 -0.5625 -30.5 C 0.25 -33.4375 1.410156 -36.164062 2.921875 -38.6875 C 4.429688 -41.207031 6.300781 -43.320312 8.53125 -45.03125 C 10.769531 -46.75 13.445312 -47.84375 16.5625 -48.3125 C 18.351562 -48.59375 19.765625 -48.640625 20.796875 -48.453125 C 21.835938 -48.273438 22.644531 -47.988281 23.21875 -47.59375 C 23.800781 -47.195312 24.296875 -46.863281 24.703125 -46.59375 C 25.109375 -46.320312 25.609375 -46.226562 26.203125 -46.3125 C 27.210938 -46.46875 27.988281 -46.875 28.53125 -47.53125 C 29.082031 -48.1875 29.703125 -48.859375 30.390625 -49.546875 C 31.078125 -50.234375 32.101562 -50.679688 33.46875 -50.890625 C 34.664062 -51.066406 35.535156 -50.890625 36.078125 -50.359375 C 36.617188 -49.835938 36.96875 -49.070312 37.125 -48.0625 C 37.375 -46.382812 37.160156 -44.65625 36.484375 -42.875 C 35.804688 -41.09375 35.160156 -38.8125 34.546875 -36.03125 C 33.554688 -32.519531 33.382812 -29.925781 34.03125 -28.25 C 34.6875 -26.582031 36.003906 -25.898438 37.984375 -26.203125 C 39.523438 -26.441406 40.800781 -27.050781 41.8125 -28.03125 C 42.832031 -29.007812 43.675781 -30.28125 44.34375 -31.84375 C 44.71875 -32.632812 45.289062 -32.984375 46.0625 -32.890625 C 46.84375 -32.796875 47.53125 -32.484375 48.125 -31.953125 C 48.71875 -31.429688 48.914062 -30.851562 48.71875 -30.21875 C 47.96875 -27.957031 47.171875 -25.46875 46.328125 -22.75 C 45.492188 -20.03125 44.507812 -17.394531 43.375 -14.84375 C 42.238281 -12.289062 40.828125 -10.101562 39.140625 -8.28125 C 37.460938 -6.46875 35.367188 -5.375 32.859375 -5 C 29.753906 -4.53125 27.367188 -5.445312 25.703125 -7.75 C 24.046875 -10.0625 23.203125 -13.109375 23.171875 -16.890625 L 22.8125 -16.828125 C 21.582031 -12.921875 19.847656 -9.5 17.609375 -6.5625 C 15.367188 -3.632812 12.660156 -1.925781 9.484375 -1.4375 Z M 15.625 -21.328125 C 17.1875 -21.566406 18.476562 -22.222656 19.5 -23.296875 C 20.519531 -24.367188 21.257812 -25.597656 21.71875 -26.984375 C 22.1875 -28.367188 22.328125 -29.6875 22.140625 -30.9375 C 21.910156 -32.425781 21.316406 -33.523438 20.359375 -34.234375 C 19.398438 -34.953125 18.203125 -35.203125 16.765625 -34.984375 C 15.210938 -34.742188 13.929688 -34.117188 12.921875 -33.109375 C 11.910156 -32.097656 11.1875 -30.898438 10.75 -29.515625 C 10.320312 -28.140625 10.210938 -26.800781 10.421875 -25.5 C 10.640625 -24 11.21875 -22.875 12.15625 -22.125 C 13.101562 -21.382812 14.257812 -21.117188 15.625 -21.328125 Z M 15.625 -21.328125 "/></g></g></g><g fill="#303030" fill-opacity="1"><g transform="translate(218.471929, 256.290384)"><g><path d="M 33.0625 -30.125 C 33.4375 -30.914062 34.007812 -31.265625 34.78125 -31.171875 C 35.5625 -31.078125 36.25 -30.769531 36.84375 -30.25 C 37.445312 -29.726562 37.644531 -29.144531 37.4375 -28.5 C 37.113281 -27.414062 36.628906 -25.890625 35.984375 -23.921875 C 35.335938 -21.960938 34.46875 -19.84375 33.375 -17.5625 C 32.289062 -15.289062 30.882812 -13.078125 29.15625 -10.921875 C 27.4375 -8.773438 25.367188 -6.921875 22.953125 -5.359375 C 20.535156 -3.804688 17.648438 -2.773438 14.296875 -2.265625 C 10.367188 -1.671875 7.128906 -2.03125 4.578125 -3.34375 C 2.023438 -4.664062 0.132812 -6.546875 -1.09375 -8.984375 C -2.320312 -11.429688 -2.96875 -14.082031 -3.03125 -16.9375 C -3.101562 -19.800781 -2.65625 -22.4375 -1.6875 -24.84375 L -1.40625 -25.4375 C -0.113281 -27.832031 1.128906 -30.414062 2.328125 -33.1875 C 3.523438 -35.96875 4.785156 -38.601562 6.109375 -41.09375 C 7.441406 -43.59375 8.894531 -45.707031 10.46875 -47.4375 C 12.039062 -49.164062 13.78125 -50.175781 15.6875 -50.46875 C 18.488281 -50.894531 20.660156 -50.550781 22.203125 -49.4375 C 23.742188 -48.332031 24.59375 -47.0625 24.75 -45.625 C 24.851562 -44.90625 24.628906 -44.257812 24.078125 -43.6875 C 23.535156 -43.113281 22.859375 -42.566406 22.046875 -42.046875 C 21.242188 -41.535156 20.554688 -40.945312 19.984375 -40.28125 C 19.410156 -39.613281 19.191406 -38.832031 19.328125 -37.9375 C 19.410156 -37.394531 19.988281 -36.378906 21.0625 -34.890625 C 22.144531 -33.410156 23.316406 -31.742188 24.578125 -29.890625 C 25.835938 -28.035156 26.789062 -26.207031 27.4375 -24.40625 C 28.800781 -24.675781 29.90625 -25.332031 30.75 -26.375 C 31.59375 -27.425781 32.363281 -28.675781 33.0625 -30.125 Z M 8.296875 -20.21875 C 10.265625 -20.519531 11.6875 -21.378906 12.5625 -22.796875 C 13.445312 -24.210938 13.75 -25.847656 13.46875 -27.703125 C 13.300781 -28.765625 12.96875 -29.835938 12.46875 -30.921875 C 11.96875 -32.015625 11.300781 -33.109375 10.46875 -34.203125 C 9.675781 -35.296875 8.957031 -35.1875 8.3125 -33.875 C 7.4375 -32.03125 6.484375 -30.160156 5.453125 -28.265625 C 4.429688 -26.367188 3.515625 -24.6875 2.703125 -23.21875 C 2.867188 -22.144531 3.46875 -21.316406 4.5 -20.734375 C 5.53125 -20.160156 6.796875 -19.988281 8.296875 -20.21875 Z M 8.296875 -20.21875 "/></g></g></g><g fill="#303030" fill-opacity="1"><g transform="translate(253.118941, 251.021906)"><g><path d="M 9.03125 -1.375 C 5.695312 -0.863281 3.082031 -1.515625 1.1875 -3.328125 C -0.695312 -5.148438 -1.890625 -7.71875 -2.390625 -11.03125 C -2.898438 -14.34375 -2.796875 -18.007812 -2.078125 -22.03125 C -1.648438 -24.40625 -1.15625 -26.984375 -0.59375 -29.765625 C -0.03125 -32.546875 0.578125 -35.570312 1.234375 -38.84375 C -0.078125 -38.644531 -1.128906 -38.835938 -1.921875 -39.421875 C -2.710938 -40.003906 -3.28125 -40.742188 -3.625 -41.640625 C -3.976562 -42.535156 -4.101562 -43.335938 -4 -44.046875 C -3.894531 -44.765625 -3.578125 -45.164062 -3.046875 -45.25 C -0.421875 -45.644531 1.523438 -46.6875 2.796875 -48.375 C 4.078125 -50.0625 4.890625 -51.757812 5.234375 -53.46875 C 5.921875 -56.257812 6.71875 -58.078125 7.625 -58.921875 C 8.539062 -59.765625 9.566406 -60.269531 10.703125 -60.4375 C 12.367188 -60.6875 13.515625 -60.144531 14.140625 -58.8125 C 14.773438 -57.476562 14.617188 -55.300781 13.671875 -52.28125 C 13.222656 -50.738281 13.023438 -49.585938 13.078125 -48.828125 C 13.140625 -48.078125 13.585938 -47.769531 14.421875 -47.90625 L 19.078125 -48.609375 C 19.671875 -48.703125 20.125 -48.34375 20.4375 -47.53125 C 20.75 -46.726562 20.878906 -45.769531 20.828125 -44.65625 C 20.773438 -43.550781 20.53125 -42.535156 20.09375 -41.609375 C 19.65625 -40.691406 18.988281 -40.164062 18.09375 -40.03125 C 15.351562 -39.613281 13.34375 -39.203125 12.0625 -38.796875 C 10.789062 -38.390625 9.945312 -37.722656 9.53125 -36.796875 C 9.113281 -35.878906 8.757812 -34.363281 8.46875 -32.25 C 7.976562 -29 8.488281 -26.539062 10 -24.875 C 11.507812 -23.207031 13.578125 -22.570312 16.203125 -22.96875 C 17.992188 -23.238281 19.523438 -23.882812 20.796875 -24.90625 C 22.078125 -25.925781 23.0625 -27.191406 23.75 -28.703125 C 24.125 -29.503906 24.703125 -29.851562 25.484375 -29.75 C 26.265625 -29.65625 26.945312 -29.347656 27.53125 -28.828125 C 28.125 -28.304688 28.320312 -27.726562 28.125 -27.09375 C 27.738281 -26 27.234375 -24.488281 26.609375 -22.5625 C 25.984375 -20.632812 25.203125 -18.523438 24.265625 -16.234375 C 23.335938 -13.953125 22.175781 -11.757812 20.78125 -9.65625 C 19.394531 -7.550781 17.734375 -5.742188 15.796875 -4.234375 C 13.867188 -2.722656 11.613281 -1.769531 9.03125 -1.375 Z M 9.03125 -1.375 "/></g></g></g></svg>